<?xml version="1.0" encoding="utf-8"?>
<svg width="140px" height="140px" viewBox="0 0 140 140" version="1.1" xmlns:xlink="http://www.w3.org/1999/xlink" xmlns="http://www.w3.org/2000/svg">
  <defs>
    <linearGradient gradientUnits="userSpaceOnUse" x1="60" y1="0" x2="60.00001" y2="120.00001" id="gradient_1">
      <stop offset="0%" stop-color="#222733" />
      <stop offset="100%" stop-color="#0A0C10" />
      <stop offset="100%" stop-color="#12151D" />
    </linearGradient>
    <radialGradient gradientUnits="objectBoundingBox" cx="26.308533%" cy="92.67003%" fx="26.308533%" fy="92.67003%" r="50.843456%" gradientTransform="translate(0.26308534,0.9267003),rotate(37.422173),scale(1,1.0929779),translate(-0.26308534,-0.9267003)" id="gradient_2">
      <stop offset="0%" stop-color="#2864E5" />
      <stop offset="61.11111%" stop-color="#1A4299" />
      <stop offset="92.59259%" stop-color="#112B64" stop-opacity="0.12156863" />
    </radialGradient>
    <filter filterUnits="userSpaceOnUse" color-interpolation-filters="sRGB" id="filter_1">
      <feFlood flood-opacity="0" result="BackgroundImageFix" />
      <feColorMatrix in="SourceAlpha" type="matrix" values="0 0 0 0 0 0 0 0 0 0 0 0 0 0 0 0 0 0 127 0" />
      <feOffset dx="0" dy="4" />
      <feGaussianBlur stdDeviation="2" />
      <feColorMatrix type="matrix" values="0 0 0 0 0 0 0 0 0 0 0 0 0 0 0 0 0 0 0.4117647 0" />
      <feBlend mode="normal" in2="BackgroundImageFix" result="effect0_dropShadow" />
      <feBlend mode="normal" in="SourceGraphic" in2="effect0_dropShadow" result="shape" />
    </filter>
    <filter filterUnits="userSpaceOnUse" color-interpolation-filters="sRGB" id="filter_2">
      <feFlood flood-opacity="0" result="BackgroundImageFix" />
      <feColorMatrix in="SourceAlpha" type="matrix" values="0 0 0 0 0 0 0 0 0 0 0 0 0 0 0 0 0 0 127 0" />
      <feOffset dx="0" dy="2" />
      <feGaussianBlur stdDeviation="2" />
      <feColorMatrix type="matrix" values="0 0 0 0 0 0 0 0 0 0 0 0 0 0 0 0 0 0 0.61960787 0" />
      <feBlend mode="normal" in2="BackgroundImageFix" result="effect0_dropShadow" />
      <feBlend mode="normal" in="SourceGraphic" in2="effect0_dropShadow" result="shape" />
    </filter>
    <path d="M9.999 0L110.001 0Q110.246 0 110.492 0.0120442Q110.737 0.0240885 110.981 0.0481479Q111.225 0.0722074 111.468 0.108224Q111.711 0.144241 111.952 0.192128Q112.192 0.240015 112.431 0.299657Q112.669 0.3593 112.904 0.430553Q113.138 0.501807 113.37 0.584501Q113.601 0.667194 113.827 0.761128Q114.054 0.855062 114.276 0.960011Q114.498 1.06496 114.714 1.18067Q114.931 1.29638 115.142 1.42257Q115.352 1.54876 115.556 1.68514Q115.76 1.82151 115.957 1.96773Q116.155 2.11395 116.344 2.26967Q116.534 2.42539 116.716 2.59023Q116.898 2.75507 117.071 2.92864Q117.245 3.10221 117.41 3.28408Q117.575 3.46596 117.73 3.6557Q117.886 3.84545 118.032 4.0426Q118.178 4.23976 118.315 4.44385Q118.451 4.64795 118.577 4.85849Q118.704 5.06903 118.819 5.2855Q118.935 5.50198 119.04 5.72388Q119.145 5.94577 119.239 6.17255Q119.333 6.39932 119.415 6.63044Q119.498 6.86155 119.569 7.09644Q119.641 7.33134 119.7 7.56944Q119.76 7.80755 119.808 8.04829Q119.856 8.28904 119.892 8.53184Q119.928 8.77465 119.952 9.01893Q119.976 9.26321 119.988 9.50837Q120 9.75354 120 9.999L120 110.001Q120 110.246 119.988 110.492Q119.976 110.737 119.952 110.981Q119.928 111.225 119.892 111.468Q119.856 111.711 119.808 111.952Q119.76 112.192 119.7 112.431Q119.641 112.669 119.569 112.904Q119.498 113.138 119.415 113.37Q119.333 113.601 119.239 113.827Q119.145 114.054 119.04 114.276Q118.935 114.498 118.819 114.714Q118.704 114.931 118.577 115.142Q118.451 115.352 118.315 115.556Q118.178 115.76 118.032 115.957Q117.886 116.155 117.73 116.344Q117.575 116.534 117.41 116.716Q117.245 116.898 117.071 117.071Q116.898 117.245 116.716 117.41Q116.534 117.575 116.344 117.73Q116.155 117.886 115.957 118.032Q115.76 118.178 115.556 118.315Q115.352 118.451 115.142 118.577Q114.931 118.704 114.715 118.819Q114.498 118.935 114.276 119.04Q114.054 119.145 113.827 119.239Q113.601 119.333 113.37 119.415Q113.138 119.498 112.904 119.569Q112.669 119.641 112.431 119.7Q112.192 119.76 111.952 119.808Q111.711 119.856 111.468 119.892Q111.225 119.928 110.981 119.952Q110.737 119.976 110.492 119.988Q110.246 120 110.001 120L9.999 120Q9.75354 120 9.50837 119.988Q9.26321 119.976 9.01893 119.952Q8.77465 119.928 8.53184 119.892Q8.28904 119.856 8.04829 119.808Q7.80755 119.76 7.56944 119.7Q7.33134 119.641 7.09644 119.569Q6.86155 119.498 6.63044 119.415Q6.39932 119.333 6.17255 119.239Q5.94577 119.145 5.72388 119.04Q5.50198 118.935 5.2855 118.819Q5.06903 118.704 4.85849 118.577Q4.64795 118.451 4.44385 118.315Q4.23976 118.178 4.0426 118.032Q3.84545 117.886 3.6557 117.73Q3.46596 117.575 3.28408 117.41Q3.10221 117.245 2.92864 117.071Q2.75507 116.898 2.59023 116.716Q2.42539 116.534 2.26967 116.344Q2.11395 116.155 1.96773 115.957Q1.82151 115.76 1.68514 115.556Q1.54876 115.352 1.42257 115.142Q1.29638 114.931 1.18067 114.715Q1.06496 114.498 0.960011 114.276Q0.855062 114.054 0.761128 113.827Q0.667194 113.601 0.584501 113.37Q0.501807 113.138 0.430553 112.904Q0.3593 112.669 0.299657 112.431Q0.240015 112.192 0.192128 111.952Q0.144241 111.711 0.108224 111.468Q0.0722074 111.225 0.0481479 110.981Q0.0240885 110.737 0.0120442 110.492Q0 110.246 0 110.001L0 9.999Q0 9.75354 0.0120442 9.50837Q0.0240885 9.26321 0.0481479 9.01893Q0.0722074 8.77465 0.108224 8.53184Q0.144241 8.28904 0.192128 8.04829Q0.240015 7.80755 0.299657 7.56944Q0.3593 7.33134 0.430553 7.09644Q0.501807 6.86155 0.584501 6.63044Q0.667194 6.39932 0.761128 6.17255Q0.855062 5.94577 0.960011 5.72388Q1.06496 5.50198 1.18067 5.2855Q1.29638 5.06903 1.42257 4.85849Q1.54876 4.64795 1.68514 4.44385Q1.82151 4.23976 1.96773 4.0426Q2.11395 3.84545 2.26967 3.6557Q2.42539 3.46596 2.59023 3.28408Q2.75507 3.10221 2.92864 2.92864Q3.10221 2.75507 3.28408 2.59023Q3.46596 2.42539 3.6557 2.26967Q3.84545 2.11395 4.0426 1.96773Q4.23976 1.82151 4.44385 1.68514Q4.64795 1.54876 4.85849 1.42257Q5.06903 1.29638 5.2855 1.18067Q5.50198 1.06496 5.72388 0.960011Q5.94577 0.855062 6.17255 0.761128Q6.39932 0.667194 6.63044 0.584501Q6.86155 0.501807 7.09644 0.430553Q7.33134 0.3593 7.56944 0.299657Q7.80755 0.240015 8.04829 0.192128Q8.28904 0.144241 8.53184 0.108224Q8.77465 0.0722074 9.01893 0.0481479Q9.26321 0.0240885 9.50837 0.0120442Q9.75354 0 9.999 0Z" id="path_1" />
    <path d="M0 35C0 15.67 15.67 0 35 0C54.33 0 70 15.67 70 35C70 54.33 54.33 70 35 70C15.67 70 0 54.33 0 35Z" id="path_2" />
    <rect width="140" height="140" id="artboard_1" />
    <clipPath id="clip_1">
      <use xlink:href="#artboard_1" clip-rule="evenodd" />
    </clipPath>
    <clipPath id="mask_1">
      <use xlink:href="#path_1" />
    </clipPath>
    <clipPath id="mask_2">
      <use xlink:href="#path_2" />
    </clipPath>
  </defs>
  <g id="Zeichenfläche" clip-path="url(#clip_1)">
    <use xlink:href="#artboard_1" stroke="none" fill="#FFFFFF" fill-opacity="0" />
    <g id="Gruppieren-2" transform="translate(10 10)" artboard="1ae74ff7-9b23-4a5d-8bbe-fa05aba3aa0b">
      <g id="Vieleck-Maske">
        <g id="Maske" filter="url(#filter_1)">
          <use stroke="none" fill="url(#gradient_1)" xlink:href="#path_1" fill-rule="evenodd" />
          <g clip-path="url(#mask_1)">
            <use xlink:href="#path_1" fill="none" stroke="#FFFFFF" stroke-opacity="0.6509804" stroke-width="6" stroke-linecap="round" stroke-linejoin="round" />
          </g>
          <g clip-path="url(#mask_1)">
            <use xlink:href="#path_1" fill="none" stroke="#000000" stroke-width="2" stroke-linecap="round" stroke-linejoin="round" />
          </g>
        </g>
      </g>
      <g id="Gruppieren" transform="translate(21.5 25)">
        <g id="Dreieck-Maske" transform="matrix(-1 0 0 -1 78.2 70)">
          <g id="Maske" filter="url(#filter_2)">
            <g clip-path="url(#mask_2)">
              <use xlink:href="#path_2" fill="none" stroke="url(#gradient_2)" stroke-width="24" />
            </g>
          </g>
        </g>
        <path d="M14.5 54L29 32L0 32L14.5 54Z" id="Dreieck" fill="#2864E5" fill-rule="evenodd" stroke="none" />
      </g>
    </g>
  </g>
</svg>