<?xml version="1.0" encoding="utf-8"?>
<svg width="256px" height="256px" viewBox="0 0 256 256" version="1.1" xmlns:xlink="http://www.w3.org/1999/xlink" xmlns="http://www.w3.org/2000/svg">
  <defs>
    <rect width="256" height="256" id="artboard_1" />
    <clipPath id="clip_1">
      <use xlink:href="#artboard_1" clip-rule="evenodd" />
    </clipPath>
  </defs>
  <g id="mimeicon_ico" clip-path="url(#clip_1)">
    <use xlink:href="#artboard_1" stroke="none" fill="#FFFFFF" fill-opacity="0" />
    <g id="Gruppieren" transform="translate(47 20)" artboard="9b57978c-5c21-41ae-86c1-1c01a7d7ddfa">
      <path d="M108 3.8147e-06L162 54L162 216L0 216L0 1.52588e-05L108 1.52588e-05L108 3.8147e-06Z" id="Rechteck-Subtrahieren" fill="#EB0800" fill-rule="evenodd" stroke="none" />
      <path d="M108 0L162 54L108 54L108 0Z" id="Dreieck" fill="#000000" fill-opacity="0.8509804" fill-rule="evenodd" stroke="none" />
    </g>
    <g id="ICO" fill="#FFFFFF" transform="translate(85 99)" artboard="46b27539-b073-4e15-9238-9d4f4cefdf36">
      <path d="M47.3011 23.767L39.8352 23.767Q39.4091 20.8864 37.3807 19.2415Q35.3523 17.5966 32.3182 17.5966Q28.2614 17.5966 25.8153 20.571Q23.3693 23.5455 23.3693 29Q23.3693 34.5909 25.8324 37.4972Q28.2955 40.4034 32.267 40.4034Q35.2159 40.4034 37.2614 38.8608Q39.3068 37.3182 39.8352 34.5227L47.3011 34.5568Q46.9091 37.7614 45.017 40.5909Q43.125 43.4205 39.8778 45.1761Q36.6307 46.9318 32.1477 46.9318Q27.4773 46.9318 23.804 44.8182Q20.1307 42.7045 18.0085 38.6989Q15.8864 34.6932 15.8864 29Q15.8864 23.2898 18.0341 19.2841Q20.1818 15.2784 23.8636 13.1733Q27.5455 11.0682 32.1477 11.0682Q36.1875 11.0682 39.4347 12.5597Q42.6818 14.0511 44.7528 16.8892Q46.8239 19.7273 47.3011 23.767ZM82.5256 38.7159Q84.6818 34.7102 84.6818 29Q84.6818 23.2898 82.5256 19.2841Q80.3693 15.2784 76.6705 13.1733Q72.9716 11.0682 68.3352 11.0682Q63.6818 11.0682 59.983 13.1733Q56.2841 15.2784 54.1364 19.2841Q51.9886 23.2898 51.9886 29Q51.9886 34.6761 54.1364 38.6903Q56.2841 42.7045 59.983 44.8182Q63.6818 46.9318 68.3352 46.9318Q72.9716 46.9318 76.6705 44.8267Q80.3693 42.7216 82.5256 38.7159ZM10.4148 11.5455L10.4148 46.4545L3.03409 46.4545L3.03409 11.5455L10.4148 11.5455ZM74.7784 20.5199Q77.1989 23.4432 77.1989 29Q77.1989 34.5398 74.7784 37.4716Q72.358 40.4034 68.3352 40.4034Q64.3125 40.4034 61.892 37.4716Q59.4716 34.5398 59.4716 29Q59.4716 23.4432 61.892 20.5199Q64.3125 17.5966 68.3352 17.5966Q72.358 17.5966 74.7784 20.5199Z" />
    </g>
    <path d="M87.5 155L128 236L47 236L87.5 155Z" id="Dreieck" fill="#FFFFFF" fill-opacity="0.72156864" fill-rule="evenodd" stroke="none" artboard="0faa0649-3460-4f66-8c01-93e67e2d2504" />
    <path d="M121 170L154 236L88 236L121 170Z" id="Dreieck-2" fill="#FFE5E4" fill-rule="evenodd" stroke="none" artboard="5ca7e2b5-54e8-40c0-ad2c-91304730f30a" />
    <path d="M160.5 157L200 236L121 236L160.5 157Z" id="Dreieck-3" fill="#FFFCFC" fill-rule="evenodd" stroke="none" artboard="ce032189-e0c1-48f4-8a15-174ee2226408" />
  </g>
</svg>