<?xml version="1.0" encoding="utf-8"?>
<svg width="256px" height="256px" viewBox="0 0 256 256" version="1.1" xmlns:xlink="http://www.w3.org/1999/xlink" xmlns="http://www.w3.org/2000/svg">
  <defs>
    <rect width="256" height="256" id="artboard_1" />
    <clipPath id="clip_1">
      <use xlink:href="#artboard_1" clip-rule="evenodd" />
    </clipPath>
  </defs>
  <g id="mimeicon_ogg" clip-path="url(#clip_1)">
    <use xlink:href="#artboard_1" stroke="none" fill="#FFFFFF" fill-opacity="0" />
    <g id="Gruppieren" transform="translate(47 20)" artboard="b6ca39ab-0059-46a8-950f-b7b759dc9b3d">
      <path d="M108 3.8147e-06L162 54L162 216L0 216L0 1.52588e-05L108 1.52588e-05L108 3.8147e-06Z" id="Rechteck-Subtrahieren" fill="#00A1EB" fill-rule="evenodd" stroke="none" />
      <path d="M108 0L162 54L108 54L108 0Z" id="Dreieck" fill="#000000" fill-opacity="0.8509804" fill-rule="evenodd" stroke="none" />
    </g>
    <g id="OGG" fill="#FFFFFF" transform="translate(73 99)" artboard="7b3b47f5-84e7-438d-a572-700497551a0f">
      <path d="M35.1136 29Q35.1136 34.7102 32.9574 38.7159Q30.8011 42.7216 27.1023 44.8267Q23.4034 46.9318 18.767 46.9318Q14.1136 46.9318 10.4148 44.8182Q6.71591 42.7045 4.56818 38.6903Q2.42045 34.6761 2.42045 29Q2.42045 23.2898 4.56818 19.2841Q6.71591 15.2784 10.4148 13.1733Q14.1136 11.0682 18.767 11.0682Q23.4034 11.0682 27.1023 13.1733Q30.8011 15.2784 32.9574 19.2841Q35.1136 23.2898 35.1136 29ZM63.7159 22.8295Q63.017 20.375 61.1335 18.9858Q59.25 17.5966 56.4034 17.5966Q52.3977 17.5966 49.9176 20.554Q47.4375 23.5114 47.4375 28.9659Q47.4375 34.4375 49.875 37.4205Q52.3125 40.4034 56.4716 40.4034Q60.1534 40.4034 62.2585 38.4858Q64.3636 36.5682 64.4318 33.3295L56.9318 33.3295L56.9318 27.7727L71.5398 27.7727L71.5398 32.1705Q71.5398 36.7557 69.5966 40.071Q67.6534 43.3864 64.2528 45.1591Q60.8523 46.9318 56.4375 46.9318Q51.5284 46.9318 47.8125 44.7585Q44.0966 42.5852 42.0256 38.571Q39.9545 34.5568 39.9545 29.0341Q39.9545 23.375 42.1193 19.3523Q44.2841 15.3295 47.983 13.1989Q51.6818 11.0682 56.2841 11.0682Q60.2386 11.0682 63.4432 12.5682Q66.6477 14.0682 68.6932 16.7187Q70.7386 19.3693 71.2159 22.8295L63.7159 22.8295ZM97.6449 18.9858Q99.5284 20.375 100.227 22.8295L107.727 22.8295Q107.25 19.3693 105.205 16.7187Q103.159 14.0682 99.9545 12.5682Q96.75 11.0682 92.7955 11.0682Q88.1932 11.0682 84.4943 13.1989Q80.7955 15.3295 78.6307 19.3523Q76.4659 23.375 76.4659 29.0341Q76.4659 34.5568 78.5369 38.571Q80.608 42.5852 84.3239 44.7585Q88.0398 46.9318 92.9489 46.9318Q97.3636 46.9318 100.764 45.1591Q104.165 43.3864 106.108 40.071Q108.051 36.7557 108.051 32.1705L108.051 27.7727L93.4432 27.7727L93.4432 33.3295L100.943 33.3295Q100.875 36.5682 98.7699 38.4858Q96.6648 40.4034 92.983 40.4034Q88.8239 40.4034 86.3864 37.4205Q83.9489 34.4375 83.9489 28.9659Q83.9489 23.5114 86.429 20.554Q88.9091 17.5966 92.9148 17.5966Q95.7614 17.5966 97.6449 18.9858ZM27.6307 29Q27.6307 23.4432 25.2102 20.5199Q22.7898 17.5966 18.767 17.5966Q14.7443 17.5966 12.3239 20.5199Q9.90341 23.4432 9.90341 29Q9.90341 34.5398 12.3239 37.4716Q14.7443 40.4034 18.767 40.4034Q22.7898 40.4034 25.2102 37.4716Q27.6307 34.5398 27.6307 29Z" />
    </g>
  </g>
</svg>