<?xml version="1.0" encoding="utf-8"?>
<svg width="256px" height="256px" viewBox="0 0 256 256" version="1.1" xmlns:xlink="http://www.w3.org/1999/xlink" xmlns="http://www.w3.org/2000/svg">
  <defs>
    <rect width="256" height="256" id="artboard_1" />
    <clipPath id="clip_1">
      <use xlink:href="#artboard_1" clip-rule="evenodd" />
    </clipPath>
  </defs>
  <g id="mimeicon_csv" clip-path="url(#clip_1)">
    <use xlink:href="#artboard_1" stroke="none" fill="#FFFFFF" fill-opacity="0" />
    <g id="Gruppieren" transform="translate(47 20)" artboard="bce2285b-9149-44af-bbba-e575f390af73">
      <path d="M108 3.8147e-06L162 54L162 216L0 216L0 1.52588e-05L108 1.52588e-05L108 3.8147e-06Z" id="Rechteck-Subtrahieren" fill="#00E231" fill-rule="evenodd" stroke="none" />
      <path d="M108 0L162 54L108 54L108 0Z" id="Dreieck" fill="#000000" fill-opacity="0.8509804" fill-rule="evenodd" stroke="none" />
    </g>
    <g id="CSV" fill="#FFFFFF" transform="translate(77 99)" artboard="8d9d03dc-4dbf-4c65-923c-19d176ace136">
      <path d="M33.8352 23.767L26.3693 23.767Q25.9432 20.8864 23.9148 19.2415Q21.8864 17.5966 18.8523 17.5966Q14.7955 17.5966 12.3494 20.571Q9.90341 23.5455 9.90341 29Q9.90341 34.5909 12.3665 37.4972Q14.8295 40.4034 18.8011 40.4034Q21.75 40.4034 23.7955 38.8608Q25.8409 37.3182 26.3693 34.5227L33.8352 34.5568Q33.4432 37.7614 31.5511 40.5909Q29.6591 43.4205 26.4119 45.1761Q23.1648 46.9318 18.6818 46.9318Q14.0114 46.9318 10.3381 44.8182Q6.66477 42.7045 4.54261 38.6989Q2.42045 34.6932 2.42045 29Q2.42045 23.2898 4.56818 19.2841Q6.71591 15.2784 10.3977 13.1733Q14.0795 11.0682 18.6818 11.0682Q22.7216 11.0682 25.9688 12.5597Q29.2159 14.0511 31.2869 16.8892Q33.358 19.7273 33.8352 23.767ZM58.0739 21.5852Q57.8693 19.5227 56.3097 18.3807Q54.75 17.2386 52.108 17.2386Q49.3977 17.2386 47.9489 18.3466Q46.5 19.4545 46.5 21.142Q46.4659 23.017 48.1108 23.9801Q49.7557 24.9432 52.0227 25.4716L55.1591 26.2216Q58.1932 26.9034 60.554 28.1989Q62.9148 29.4943 64.2699 31.5312Q65.625 33.5682 65.625 36.483Q65.608 41.2727 62.0369 44.1108Q58.4659 46.9489 52.0739 46.9489Q45.7159 46.9489 41.9318 44.0511Q38.1477 41.1534 38.0114 35.4943L45.1534 35.4943Q45.3409 38.1193 47.2244 39.4403Q49.108 40.7614 51.9886 40.7614Q54.8011 40.7614 56.4801 39.5682Q58.1591 38.375 58.1761 36.4659Q58.1591 34.6932 56.625 33.7386Q55.0909 32.7841 52.2443 32.1023L48.4432 31.1477Q44.0284 30.0909 41.4716 27.7898Q38.9148 25.4886 38.9318 21.6364Q38.9148 18.4659 40.6278 16.0881Q42.3409 13.7102 45.3409 12.3892Q48.3409 11.0682 52.1591 11.0682Q56.0455 11.0682 58.9517 12.3977Q61.858 13.7273 63.4773 16.0966Q65.0966 18.4659 65.1477 21.5852L58.0739 21.5852ZM85.3125 38.0682L76.875 11.5455L68.6761 11.5455L80.7273 46.4545L90.2386 46.4545L102.273 11.5455L94.0909 11.5455L85.6364 38.0682L85.3125 38.0682Z" />
    </g>
  </g>
</svg>