<?xml version="1.0" encoding="utf-8"?>
<svg width="256px" height="256px" viewBox="0 0 256 256" version="1.1" xmlns:xlink="http://www.w3.org/1999/xlink" xmlns="http://www.w3.org/2000/svg">
  <defs>
    <rect width="256" height="256" id="artboard_1" />
    <clipPath id="clip_1">
      <use xlink:href="#artboard_1" clip-rule="evenodd" />
    </clipPath>
  </defs>
  <g id="mimeicon_docm" clip-path="url(#clip_1)">
    <use xlink:href="#artboard_1" stroke="none" fill="#FFFFFF" fill-opacity="0" />
    <g id="Gruppieren" transform="translate(47 20)" artboard="410e2042-52b4-4252-943b-0fcf832788aa">
      <path d="M108 3.8147e-06L162 54L162 216L0 216L0 1.52588e-05L108 1.52588e-05L108 3.8147e-06Z" id="Rechteck-Subtrahieren" fill="#0080FF" fill-rule="evenodd" stroke="none" />
      <path d="M108 0L162 54L108 54L108 0Z" id="Dreieck" fill="#000000" fill-opacity="0.8509804" fill-rule="evenodd" stroke="none" />
    </g>
    <g id="DOCM" fill="#FFFFFF" transform="translate(52 99)" artboard="2a735d03-1d9b-4dfd-8f2e-d2377acb6369">
      <path d="M67.8665 38.7159Q70.0227 34.7102 70.0227 29Q70.0227 23.2898 67.8665 19.2841Q65.7102 15.2784 62.0114 13.1733Q58.3125 11.0682 53.6761 11.0682Q49.0227 11.0682 45.3239 13.1733Q41.625 15.2784 39.4773 19.2841Q37.3295 23.2898 37.3295 29Q37.3295 34.6761 39.4773 38.6903Q41.625 42.7045 45.3239 44.8182Q49.0227 46.9318 53.6761 46.9318Q58.3125 46.9318 62.0114 44.8267Q65.7102 42.7216 67.8665 38.7159ZM106.278 23.767L98.8125 23.767Q98.3864 20.8864 96.358 19.2415Q94.3295 17.5966 91.2955 17.5966Q87.2386 17.5966 84.7926 20.571Q82.3466 23.5455 82.3466 29Q82.3466 34.5909 84.8097 37.4972Q87.2727 40.4034 91.2443 40.4034Q94.1932 40.4034 96.2386 38.8608Q98.2841 37.3182 98.8125 34.5227L106.278 34.5568Q105.886 37.7614 103.994 40.5909Q102.102 43.4205 98.8551 45.1761Q95.608 46.9318 91.125 46.9318Q86.4545 46.9318 82.7813 44.8182Q79.108 42.7045 76.9858 38.6989Q74.8636 34.6932 74.8636 29Q74.8636 23.2898 77.0114 19.2841Q79.1591 15.2784 82.8409 13.1733Q86.5227 11.0682 91.125 11.0682Q95.1648 11.0682 98.4119 12.5597Q101.659 14.0511 103.73 16.8892Q105.801 19.7273 106.278 23.767ZM3.03409 46.4545L15.4091 46.4545Q20.7273 46.4545 24.554 44.358Q28.3807 42.2614 30.4347 38.3409Q32.4886 34.4205 32.4886 28.9659Q32.4886 23.5284 30.4432 19.625Q28.3977 15.7216 24.5881 13.6335Q20.7784 11.5455 15.5114 11.5455L3.03409 11.5455L3.03409 46.4545ZM120.682 11.5455L111.58 11.5455L111.58 46.4545L118.739 46.4545L118.739 23.6477L119.028 23.6477L128.063 46.2841L132.938 46.2841L141.972 23.733L142.261 23.733L142.261 46.4545L149.42 46.4545L149.42 11.5455L140.318 11.5455L130.705 35L130.295 35L120.682 11.5455ZM60.1193 20.5199Q62.5398 23.4432 62.5398 29Q62.5398 34.5398 60.1193 37.4716Q57.6989 40.4034 53.6761 40.4034Q49.6534 40.4034 47.233 37.4716Q44.8125 34.5398 44.8125 29Q44.8125 23.4432 47.233 20.5199Q49.6534 17.5966 53.6761 17.5966Q57.6989 17.5966 60.1193 20.5199ZM15.1023 40.1307L10.4148 40.1307L10.4148 17.8693L15.1193 17.8693Q20.0284 17.8693 22.5767 20.5114Q25.125 23.1534 25.125 28.9659Q25.125 34.8125 22.5767 37.4716Q20.0284 40.1307 15.1023 40.1307Z" />
    </g>
    <g id="W" fill="#FFFFFF" fill-opacity="0.6901961" transform="translate(103 157)" artboard="e4967ff6-6343-4da7-80d9-9b88837e2f33">
      <path d="M10.892 46.4545L0.903409 11.5455L8.96591 11.5455L14.7443 35.8011L15.0341 35.8011L21.4091 11.5455L28.3125 11.5455L34.6705 35.8523L34.9773 35.8523L40.7557 11.5455L48.8182 11.5455L38.8295 46.4545L31.6364 46.4545L24.9886 23.6307L24.7159 23.6307L18.0852 46.4545L10.892 46.4545Z" />
    </g>
    <g id="{}" fill="#FFFFFF" fill-opacity="0.8784314" transform="translate(57 30)" artboard="ab9e9b35-30be-4a99-a4b6-765004e95c88">
      <path d="M19.1186 8.65341Q17.5014 8.41051 15.5582 8.41051L15.5582 12.4886Q17.8338 12.4886 18.5178 13.3771Q19.2017 14.2656 19.2017 16.1193L19.2017 19.8523Q19.2017 20.8366 19.5661 21.7187Q19.9304 22.6009 20.9148 23.2784Q21.8991 23.956 23.7528 24.3395L23.7528 24.8509Q21.8991 25.2344 20.9148 25.9119Q19.9304 26.5895 19.5661 27.4652Q19.2017 28.3409 19.2017 29.3253L19.2017 33.0582Q19.2017 34.9119 18.5178 35.8068Q17.8338 36.7017 15.5582 36.7017L15.5582 40.767Q17.5014 40.767 19.1186 40.5241Q20.7358 40.2813 21.9247 39.5526Q23.1136 38.8239 23.7656 37.3984Q24.4176 35.973 24.4176 33.608L24.4176 30.7827Q24.4176 28.8139 25.2805 27.9318Q26.1435 27.0497 28.3423 27.0497L28.3423 22.1406Q26.1435 22.1406 25.2805 21.2585Q24.4176 20.3764 24.4176 18.4077L24.4176 15.5696Q24.4176 13.2045 23.7656 11.7791Q23.1136 10.3537 21.9247 9.625Q20.7358 8.89631 19.1186 8.65341ZM10.3423 40.5369Q11.9659 40.7798 13.8963 40.7798L13.8963 36.7017Q11.6207 36.7017 10.9368 35.8132Q10.2528 34.9247 10.2528 33.071L10.2528 29.3381Q10.2528 28.3537 9.88849 27.4716Q9.52415 26.5895 8.53977 25.9119Q7.5554 25.2344 5.7017 24.8509L5.7017 24.3395Q7.5554 23.956 8.53977 23.2784Q9.52415 22.6009 9.88849 21.7251Q10.2528 20.8494 10.2528 19.8651L10.2528 16.1321Q10.2528 14.2656 10.9368 13.3771Q11.6207 12.4886 13.8963 12.4886L13.8963 8.42329Q11.9659 8.4233 10.3423 8.66619Q8.71875 8.90909 7.52983 9.63778Q6.34091 10.3665 5.68892 11.7919Q5.03693 13.2173 5.03693 15.5824L5.03693 18.4077Q5.03693 20.3764 4.1804 21.2585Q3.32386 22.1406 1.11222 22.1406L1.11222 27.0497Q3.32386 27.0497 4.1804 27.9318Q5.03693 28.8139 5.03693 30.7827L5.03693 33.6207Q5.03693 35.9858 5.68892 37.4112Q6.34091 38.8366 7.52983 39.5653Q8.71875 40.294 10.3423 40.5369Z" />
    </g>
  </g>
</svg>