<?xml version="1.0" encoding="utf-8"?>
<svg width="256px" height="256px" viewBox="0 0 256 256" version="1.1" xmlns:xlink="http://www.w3.org/1999/xlink" xmlns="http://www.w3.org/2000/svg">
  <defs>
    <rect width="256" height="256" id="artboard_1" />
    <clipPath id="clip_1">
      <use xlink:href="#artboard_1" clip-rule="evenodd" />
    </clipPath>
  </defs>
  <g id="mimeicon_xls" clip-path="url(#clip_1)">
    <use xlink:href="#artboard_1" stroke="none" fill="#FFFFFF" fill-opacity="0" />
    <g id="Gruppieren" transform="translate(47 20)" artboard="f495699b-78fc-4a52-a950-8822dde76afc">
      <path d="M108 3.8147e-06L162 54L162 216L0 216L0 1.52588e-05L108 1.52588e-05L108 3.8147e-06Z" id="Rechteck-Subtrahieren" fill="#00E231" fill-rule="evenodd" stroke="none" />
      <path d="M108 0L162 54L108 54L108 0Z" id="Dreieck" fill="#000000" fill-opacity="0.8509804" fill-rule="evenodd" stroke="none" />
    </g>
    <g id="XLS" fill="#FFFFFF" transform="translate(82 99)" artboard="42792fc7-5a9a-4aef-8403-56015a23e9fa">
      <path d="M81.7415 18.3807Q83.3011 19.5227 83.5057 21.5852L90.5795 21.5852Q90.5284 18.4659 88.9091 16.0966Q87.2898 13.7273 84.3835 12.3977Q81.4773 11.0682 77.5909 11.0682Q73.7727 11.0682 70.7727 12.3892Q67.7727 13.7102 66.0597 16.0881Q64.3466 18.4659 64.3636 21.6364Q64.3466 25.4886 66.9034 27.7898Q69.4602 30.0909 73.875 31.1477L77.6761 32.1023Q80.5227 32.7841 82.0568 33.7386Q83.5909 34.6932 83.608 36.4659Q83.5909 38.375 81.9119 39.5682Q80.233 40.7614 77.4205 40.7614Q74.5398 40.7614 72.6563 39.4403Q70.7727 38.1193 70.5852 35.4943L63.4432 35.4943Q63.5795 41.1534 67.3636 44.0511Q71.1477 46.9489 77.5057 46.9489Q83.8977 46.9489 87.4688 44.1108Q91.0398 41.2727 91.0568 36.483Q91.0568 33.5682 89.7017 31.5312Q88.3466 29.4943 85.9858 28.1989Q83.625 26.9034 80.5909 26.2216L77.4545 25.4716Q75.1875 24.9432 73.5426 23.9801Q71.8977 23.017 71.9318 21.142Q71.9318 19.4545 73.3807 18.3466Q74.8296 17.2386 77.5398 17.2386Q80.1818 17.2386 81.7415 18.3807ZM9.95455 11.5455L16.9943 23.4432L17.267 23.4432L24.3409 11.5455L32.6761 11.5455L22.0227 29L32.9148 46.4545L24.4261 46.4545L17.267 34.5398L16.9943 34.5398L9.83523 46.4545L1.38068 46.4545L12.3068 29L1.58523 11.5455L9.95455 11.5455ZM37.3295 11.5455L44.7102 11.5455L44.7102 40.3693L59.6761 40.3693L59.6761 46.4545L37.3295 46.4545L37.3295 11.5455Z" />
    </g>
    <g id="X" fill="#FFFFFF" fill-opacity="0.6901961" transform="translate(111 157)" artboard="154f6700-bf12-47a0-b086-001a796ef9bd">
      <path d="M9.95455 11.5455L16.9943 23.4432L17.267 23.4432L24.3409 11.5455L32.6761 11.5455L22.0227 29L32.9148 46.4545L24.4261 46.4545L17.267 34.5398L16.9943 34.5398L9.83523 46.4545L1.38068 46.4545L12.3068 29L1.58523 11.5455L9.95455 11.5455Z" />
    </g>
  </g>
</svg>