<?xml version="1.0" encoding="utf-8"?>
<svg width="256px" height="256px" viewBox="0 0 256 256" version="1.1" xmlns:xlink="http://www.w3.org/1999/xlink" xmlns="http://www.w3.org/2000/svg">
  <defs>
    <rect width="256" height="256" id="artboard_1" />
    <clipPath id="clip_1">
      <use xlink:href="#artboard_1" clip-rule="evenodd" />
    </clipPath>
  </defs>
  <g id="mimeicon_pptm" clip-path="url(#clip_1)">
    <use xlink:href="#artboard_1" stroke="none" fill="#FFFFFF" fill-opacity="0" />
    <g id="Gruppieren" transform="translate(47 20)" artboard="c97a359e-7f22-4f73-a3de-82343afdcc4a">
      <path d="M108 3.8147e-06L162 54L162 216L0 216L0 1.52588e-05L108 1.52588e-05L108 3.8147e-06Z" id="Rechteck-Subtrahieren" fill="#FF5100" fill-rule="evenodd" stroke="none" />
      <path d="M108 0L162 54L108 54L108 0Z" id="Dreieck" fill="#000000" fill-opacity="0.8509804" fill-rule="evenodd" stroke="none" />
    </g>
    <g id="PPTM" fill="#FFFFFF" transform="translate(59 99)" artboard="628fdc59-e22d-4310-a0c9-92160a951481">
      <path d="M3.03409 11.5455L3.03409 46.4545L10.4148 46.4545L10.4148 35.1364L16.6193 35.1364Q20.642 35.1364 23.4801 33.6449Q26.3182 32.1534 27.8182 29.5028Q29.3182 26.8523 29.3182 23.375Q29.3182 19.8977 27.8438 17.2301Q26.3693 14.5625 23.5739 13.054Q20.7784 11.5455 16.8068 11.5455L3.03409 11.5455ZM34.125 11.5455L34.125 46.4545L41.5057 46.4545L41.5057 35.1364L47.7102 35.1364Q51.733 35.1364 54.571 33.6449Q57.4091 32.1534 58.9091 29.5028Q60.4091 26.8523 60.4091 23.375Q60.4091 19.8977 58.9347 17.2301Q57.4602 14.5625 54.6648 13.054Q51.8693 11.5455 47.8977 11.5455L34.125 11.5455ZM63.8864 17.6307L63.8864 11.5455L92.5568 11.5455L92.5568 17.6307L81.8693 17.6307L81.8693 46.4545L74.5739 46.4545L74.5739 17.6307L63.8864 17.6307ZM106.398 11.5455L97.2955 11.5455L97.2955 46.4545L104.455 46.4545L104.455 23.6477L104.744 23.6477L113.778 46.2841L118.653 46.2841L127.688 23.733L127.977 23.733L127.977 46.4545L135.136 46.4545L135.136 11.5455L126.034 11.5455L116.42 35L116.011 35L106.398 11.5455ZM15.4261 29.2216L10.4148 29.2216L10.4148 17.5795L15.392 17.5795Q18.5966 17.5795 20.1563 19.1733Q21.7159 20.767 21.7159 23.375Q21.7159 25.9659 20.1563 27.5937Q18.5966 29.2216 15.4261 29.2216ZM46.517 29.2216L41.5057 29.2216L41.5057 17.5795L46.483 17.5795Q49.6875 17.5795 51.2472 19.1733Q52.8068 20.767 52.8068 23.375Q52.8068 25.9659 51.2472 27.5937Q49.6875 29.2216 46.517 29.2216Z" />
    </g>
    <g id="P" fill="#FFFFFF" fill-opacity="0.6901961" transform="translate(113 157)" artboard="69c459bb-836b-4242-9d55-c5e47f199967">
      <path d="M3.03409 46.4545L3.03409 11.5455L16.8068 11.5455Q20.7784 11.5455 23.5739 13.054Q26.3693 14.5625 27.8438 17.2301Q29.3182 19.8977 29.3182 23.375Q29.3182 26.8523 27.8182 29.5028Q26.3182 32.1534 23.4801 33.6449Q20.642 35.1364 16.6193 35.1364L10.4148 35.1364L10.4148 46.4545L3.03409 46.4545ZM10.4148 29.2216L15.4261 29.2216Q18.5966 29.2216 20.1563 27.5937Q21.7159 25.9659 21.7159 23.375Q21.7159 20.767 20.1563 19.1733Q18.5966 17.5795 15.392 17.5795L10.4148 17.5795L10.4148 29.2216Z" />
    </g>
    <g id="{}" fill="#FFFFFF" fill-opacity="0.8784314" transform="translate(57 30)" artboard="115f2b75-7f3e-416d-8589-73b388688d58">
      <path d="M19.1186 8.65341Q17.5014 8.41051 15.5582 8.41051L15.5582 12.4886Q17.8338 12.4886 18.5178 13.3771Q19.2017 14.2656 19.2017 16.1193L19.2017 19.8523Q19.2017 20.8366 19.5661 21.7187Q19.9304 22.6009 20.9148 23.2784Q21.8991 23.956 23.7528 24.3395L23.7528 24.8509Q21.8991 25.2344 20.9148 25.9119Q19.9304 26.5895 19.5661 27.4652Q19.2017 28.3409 19.2017 29.3253L19.2017 33.0582Q19.2017 34.9119 18.5178 35.8068Q17.8338 36.7017 15.5582 36.7017L15.5582 40.767Q17.5014 40.767 19.1186 40.5241Q20.7358 40.2813 21.9247 39.5526Q23.1136 38.8239 23.7656 37.3984Q24.4176 35.973 24.4176 33.608L24.4176 30.7827Q24.4176 28.8139 25.2805 27.9318Q26.1435 27.0497 28.3423 27.0497L28.3423 22.1406Q26.1435 22.1406 25.2805 21.2585Q24.4176 20.3764 24.4176 18.4077L24.4176 15.5696Q24.4176 13.2045 23.7656 11.7791Q23.1136 10.3537 21.9247 9.625Q20.7358 8.89631 19.1186 8.65341ZM10.3423 40.5369Q11.9659 40.7798 13.8963 40.7798L13.8963 36.7017Q11.6207 36.7017 10.9368 35.8132Q10.2528 34.9247 10.2528 33.071L10.2528 29.3381Q10.2528 28.3537 9.88849 27.4716Q9.52415 26.5895 8.53977 25.9119Q7.5554 25.2344 5.7017 24.8509L5.7017 24.3395Q7.5554 23.956 8.53977 23.2784Q9.52415 22.6009 9.88849 21.7251Q10.2528 20.8494 10.2528 19.8651L10.2528 16.1321Q10.2528 14.2656 10.9368 13.3771Q11.6207 12.4886 13.8963 12.4886L13.8963 8.42329Q11.9659 8.4233 10.3423 8.66619Q8.71875 8.90909 7.52983 9.63778Q6.34091 10.3665 5.68892 11.7919Q5.03693 13.2173 5.03693 15.5824L5.03693 18.4077Q5.03693 20.3764 4.1804 21.2585Q3.32386 22.1406 1.11222 22.1406L1.11222 27.0497Q3.32386 27.0497 4.1804 27.9318Q5.03693 28.8139 5.03693 30.7827L5.03693 33.6207Q5.03693 35.9858 5.68892 37.4112Q6.34091 38.8366 7.52983 39.5653Q8.71875 40.294 10.3423 40.5369Z" />
    </g>
  </g>
</svg>