<?xml version="1.0" encoding="utf-8"?>
<svg width="256px" height="256px" viewBox="0 0 256 256" version="1.1" xmlns:xlink="http://www.w3.org/1999/xlink" xmlns="http://www.w3.org/2000/svg">
  <defs>
    <rect width="256" height="256" id="artboard_1" />
    <clipPath id="clip_1">
      <use xlink:href="#artboard_1" clip-rule="evenodd" />
    </clipPath>
  </defs>
  <g id="mimeicon_php" clip-path="url(#clip_1)">
    <use xlink:href="#artboard_1" stroke="none" fill="#FFFFFF" fill-opacity="0" />
    <g id="Gruppieren" transform="translate(47 20)" artboard="cb338a7b-dd5e-476a-a616-3cb9294a0c19">
      <path d="M108 3.8147e-06L162 54L162 216L0 216L0 1.52588e-05L108 1.52588e-05L108 3.8147e-06Z" id="Rechteck-Subtrahieren" fill="#A800EB" fill-rule="evenodd" stroke="none" />
      <path d="M108 0L162 54L108 54L108 0Z" id="Dreieck" fill="#000000" fill-opacity="0.8509804" fill-rule="evenodd" stroke="none" />
    </g>
    <g id="" fill="#FFFFFF" transform="translate(65 90)" artboard="83faab6f-618f-42b0-b489-dcb8fac7e058">
      <path d="M56.7273 47.2273L56.7273 46.1364Q56.7273 42.3864 57.3182 40.1591Q57.9091 37.9318 59.0682 36.5795Q60.2273 35.2273 61.9091 34.1364Q64.0682 32.7273 65.5341 31.3864Q67 30.0455 67 28.1364Q67 26.4318 65.8068 25.375Q64.6136 24.3182 62.9091 24.3182Q61.0682 24.3182 59.7159 25.5682Q58.3636 26.8182 58.3636 28.7727L46.7273 28.7727Q46.7727 23.7727 49 20.6477Q51.2273 17.5227 54.9091 16.0568Q58.5909 14.5909 63 14.5909Q67.8636 14.5909 71.6818 16.0114Q75.5 17.4318 77.7045 20.2841Q79.9091 23.1364 79.9091 27.4091Q79.9091 31.5455 77.8409 34.1818Q75.7727 36.8182 72.4545 38.7727Q69.9773 40.2273 68.7159 41.8295Q67.4545 43.4318 67.4545 46.1364L67.4545 47.2273L56.7273 47.2273ZM5.27273 48.3182L5.27273 37.4091L39.0909 23.8636L39.0909 35.3182L17.9091 42.6364L17.9091 43.0909L39.0909 50.4091L39.0909 61.8636L5.27273 48.3182ZM88 61.8636L121.818 48.3182L121.818 37.4091L88 23.8636L88 35.3182L109.182 42.6364L109.182 43.0909L88 50.4091L88 61.8636ZM62.2727 62.5Q59.6364 62.5 57.7614 60.6477Q55.8864 58.7955 55.9091 56.1364Q55.8864 53.5455 57.7614 51.7045Q59.6364 49.8636 62.2727 49.8636Q64.7727 49.8636 66.6932 51.7045Q68.6136 53.5455 68.6364 56.1364Q68.6136 58.7955 66.6932 60.6477Q64.7727 62.5 62.2727 62.5Z" />
    </g>
  </g>
</svg>