<?xml version="1.0" encoding="utf-8"?>
<svg width="256px" height="256px" viewBox="0 0 256 256" version="1.1" xmlns:xlink="http://www.w3.org/1999/xlink" xmlns="http://www.w3.org/2000/svg">
  <defs>
    <rect width="256" height="256" id="artboard_1" />
    <clipPath id="clip_1">
      <use xlink:href="#artboard_1" clip-rule="evenodd" />
    </clipPath>
  </defs>
  <g id="mimeicon_pdf" clip-path="url(#clip_1)">
    <use xlink:href="#artboard_1" stroke="none" fill="#FFFFFF" fill-opacity="0" />
    <g id="Gruppieren" transform="translate(47 20)" artboard="9fb46106-b361-424d-8ba9-75b17167fdb2">
      <path d="M108 3.8147e-06L162 54L162 216L0 216L0 1.52588e-05L108 1.52588e-05L108 3.8147e-06Z" id="Rechteck-Subtrahieren" fill="#FF1500" fill-rule="evenodd" stroke="none" />
      <path d="M108 0L162 54L108 54L108 0Z" id="Dreieck" fill="#000000" fill-opacity="0.8509804" fill-rule="evenodd" stroke="none" />
    </g>
    <g id="PDF" fill="#FFFFFF" transform="translate(66 100)" artboard="9dbfc230-95bd-4205-80d8-6446977d112d">
      <path d="M4.04545 61.7727L4.04545 15.2273L22.4091 15.2273Q27.7045 15.2273 31.4318 17.2386Q35.1591 19.25 37.125 22.8068Q39.0909 26.3636 39.0909 31Q39.0909 35.6364 37.0909 39.1705Q35.0909 42.7045 31.3068 44.6932Q27.5227 46.6818 22.1591 46.6818L13.8864 46.6818L13.8864 61.7727L4.04545 61.7727ZM62 61.7727L45.5 61.7727L45.5 15.2273L62.1364 15.2273Q69.1591 15.2273 74.2386 18.0114Q79.3182 20.7955 82.0455 26Q84.7727 31.2045 84.7727 38.4545Q84.7727 45.7273 82.0341 50.9545Q79.2955 56.1818 74.1932 58.9773Q69.0909 61.7727 62 61.7727ZM92.0455 15.2273L92.0455 61.7727L101.886 61.7727L101.886 42.5455L120.818 42.5455L120.818 34.4318L101.886 34.4318L101.886 23.3409L122.864 23.3409L122.864 15.2273L92.0455 15.2273ZM13.8864 38.7955L20.5682 38.7955Q24.7955 38.7955 26.875 36.625Q28.9545 34.4545 28.9545 31Q28.9545 27.5227 26.875 25.3977Q24.7955 23.2727 20.5227 23.2727L13.8864 23.2727L13.8864 38.7955ZM55.3409 53.3409L61.5909 53.3409Q68.1591 53.3409 71.5568 49.7955Q74.9545 46.25 74.9545 38.4545Q74.9545 30.7045 71.5568 27.1818Q68.1591 23.6591 61.6136 23.6591L55.3409 23.6591L55.3409 53.3409Z" />
    </g>
  </g>
</svg>