<?xml version="1.0" encoding="utf-8"?>
<svg width="256px" height="256px" viewBox="0 0 256 256" version="1.1" xmlns:xlink="http://www.w3.org/1999/xlink" xmlns="http://www.w3.org/2000/svg">
  <defs>
    <rect width="256" height="256" id="artboard_1" />
    <clipPath id="clip_1">
      <use xlink:href="#artboard_1" clip-rule="evenodd" />
    </clipPath>
  </defs>
  <g id="mimeicon_svg" clip-path="url(#clip_1)">
    <use xlink:href="#artboard_1" stroke="none" fill="#FFFFFF" fill-opacity="0" />
    <g id="Gruppieren" transform="translate(47 20)" artboard="2bef472b-34dd-4e6c-a377-68e8c982ac79">
      <path d="M108 3.8147e-06L162 54L162 216L0 216L0 1.52588e-05L108 1.52588e-05L108 3.8147e-06Z" id="Rechteck-Subtrahieren" fill="#EB0800" fill-rule="evenodd" stroke="none" />
      <path d="M108 0L162 54L108 54L108 0Z" id="Dreieck" fill="#000000" fill-opacity="0.8509804" fill-rule="evenodd" stroke="none" />
    </g>
    <g id="SVG" fill="#FFFFFF" transform="translate(76 99)" artboard="dbb5f47c-7ab4-47ec-9dad-079db1fad29b">
      <path d="M21.9716 21.5852Q21.767 19.5227 20.2074 18.3807Q18.6477 17.2386 16.0057 17.2386Q13.2955 17.2386 11.8466 18.3466Q10.3977 19.4545 10.3977 21.142Q10.3636 23.017 12.0085 23.9801Q13.6534 24.9432 15.9205 25.4716L19.0568 26.2216Q22.0909 26.9034 24.4517 28.1989Q26.8125 29.4943 28.1676 31.5312Q29.5227 33.5682 29.5227 36.483Q29.5057 41.2727 25.9347 44.1108Q22.3636 46.9489 15.9716 46.9489Q9.61364 46.9489 5.82955 44.0511Q2.04545 41.1534 1.90909 35.4943L9.05114 35.4943Q9.23864 38.1193 11.1222 39.4403Q13.0057 40.7614 15.8864 40.7614Q18.6989 40.7614 20.3778 39.5682Q22.0568 38.375 22.0739 36.4659Q22.0568 34.6932 20.5227 33.7386Q18.9886 32.7841 16.142 32.1023L12.3409 31.1477Q7.92614 30.0909 5.36932 27.7898Q2.8125 25.4886 2.82955 21.6364Q2.8125 18.4659 4.52557 16.0881Q6.23864 13.7102 9.23864 12.3892Q12.2386 11.0682 16.0568 11.0682Q19.9432 11.0682 22.8494 12.3977Q25.7557 13.7273 27.375 16.0966Q28.9943 18.4659 29.0455 21.5852L21.9716 21.5852ZM90.929 18.9858Q92.8125 20.375 93.5114 22.8295L101.011 22.8295Q100.534 19.3693 98.4886 16.7187Q96.4432 14.0682 93.2386 12.5682Q90.0341 11.0682 86.0795 11.0682Q81.4773 11.0682 77.7784 13.1989Q74.0795 15.3295 71.9148 19.3523Q69.75 23.375 69.75 29.0341Q69.75 34.5568 71.821 38.571Q73.892 42.5852 77.608 44.7585Q81.3239 46.9318 86.233 46.9318Q90.6477 46.9318 94.0483 45.1591Q97.4489 43.3864 99.392 40.071Q101.335 36.7557 101.335 32.1705L101.335 27.7727L86.7273 27.7727L86.7273 33.3295L94.2273 33.3295Q94.1591 36.5682 92.054 38.4858Q89.9489 40.4034 86.267 40.4034Q82.108 40.4034 79.6705 37.4205Q77.233 34.4375 77.233 28.9659Q77.233 23.5114 79.7131 20.554Q82.1932 17.5966 86.1989 17.5966Q89.0455 17.5966 90.929 18.9858ZM40.7727 11.5455L49.2102 38.0682L49.5341 38.0682L57.9886 11.5455L66.1705 11.5455L54.1364 46.4545L44.625 46.4545L32.5739 11.5455L40.7727 11.5455Z" />
    </g>
    <path d="M87.5 155L128 236L47 236L87.5 155Z" id="Dreieck" fill="#FFFFFF" fill-opacity="0.72156864" fill-rule="evenodd" stroke="none" artboard="4bcc0ea7-b3c8-4b20-a6ed-febdf019a89f" />
    <path d="M121 170L154 236L88 236L121 170Z" id="Dreieck-2" fill="#FFE5E4" fill-rule="evenodd" stroke="none" artboard="fe222f74-0b9a-41ef-8c96-92c5efe6c540" />
    <path d="M160.5 157L200 236L121 236L160.5 157Z" id="Dreieck-3" fill="#FFFCFC" fill-rule="evenodd" stroke="none" artboard="0e209d24-15d0-4d53-93b3-e2b12d2ff578" />
  </g>
</svg>