<?xml version="1.0" encoding="utf-8"?>
<svg width="256px" height="256px" viewBox="0 0 256 256" version="1.1" xmlns:xlink="http://www.w3.org/1999/xlink" xmlns="http://www.w3.org/2000/svg">
  <defs>
    <rect width="256" height="256" id="artboard_1" />
    <clipPath id="clip_1">
      <use xlink:href="#artboard_1" clip-rule="evenodd" />
    </clipPath>
  </defs>
  <g id="mimeicon_pyw" clip-path="url(#clip_1)">
    <use xlink:href="#artboard_1" stroke="none" fill="#FFFFFF" fill-opacity="0" />
    <g id="Gruppieren" transform="translate(47 20)" artboard="172b7643-c9a7-4881-a340-2b29d94815ee">
      <path d="M108 3.8147e-06L162 54L162 216L0 216L0 1.52588e-05L108 1.52588e-05L108 3.8147e-06Z" id="Rechteck-Subtrahieren" fill="#FFB200" fill-rule="evenodd" stroke="none" />
      <path d="M108 0L162 54L108 54L108 0Z" id="Dreieck" fill="#000000" fill-opacity="0.8509804" fill-rule="evenodd" stroke="none" />
    </g>
    <g id="pyw" fill="#211700" transform="translate(60 90)" artboard="2f8f0340-1386-4cb0-b9fe-3a5c05f7756f">
      <path d="M3.18182 74.8636L3.18182 26.8636L15.6364 26.8636L15.6364 32.9545L15.9091 32.9545Q16.9318 30.2955 19.3864 28.3523Q21.8409 26.4091 25.7273 26.4091Q29.1818 26.4091 32.3068 28.25Q35.4318 30.0909 37.3977 34.0455Q39.3636 38 39.3636 44.3182Q39.3636 50.3636 37.4886 54.3409Q35.6136 58.3182 32.4886 60.2727Q29.3636 62.2273 25.6364 62.2273Q21.9545 62.2273 19.4773 60.4659Q17 58.7045 15.9091 56.0455L15.7273 56.0455L15.7273 74.8636L3.18182 74.8636ZM52.2727 74.8636Q47.8409 74.8636 44.7273 73.6364L47.4545 64.7273Q49.7727 65.5455 51.4773 65.4773Q53.1818 65.4091 53.8182 63.9545L54.0909 63.3182L41.8182 26.8636L54.9091 26.8636L60.5455 51.0455L60.9091 51.0455L66.6364 26.8636L79.8182 26.8636L67.0909 64.6818Q66.1364 67.5682 64.3295 69.875Q62.5227 72.1818 59.5909 73.5227Q56.6591 74.8636 52.2727 74.8636ZM93.3636 26.8636L80.8182 26.8636L89.5455 61.7727L103.091 61.7727L108 43.0455L108.364 43.0455L113.273 61.7727L126.818 61.7727L135.545 26.8636L123 26.8636L119.182 47.9545L118.909 47.9545L114.273 26.8636L102.091 26.8636L97.6364 48.1364L97.3636 48.1364L93.3636 26.8636ZM15.4545 44.3182Q15.4545 48.1364 16.9318 50.3636Q18.4091 52.5909 21 52.5909Q23.5909 52.5909 25.0227 50.3977Q26.4545 48.2045 26.4545 44.3182Q26.4545 40.4318 25.0227 38.2386Q23.5909 36.0455 21 36.0455Q18.4091 36.0455 16.9318 38.2386Q15.4545 40.4318 15.4545 44.3182Z" />
    </g>
  </g>
</svg>