<?xml version="1.0" encoding="utf-8"?>
<svg width="256px" height="256px" viewBox="0 0 256 256" version="1.1" xmlns:xlink="http://www.w3.org/1999/xlink" xmlns="http://www.w3.org/2000/svg">
  <defs>
    <rect width="256" height="256" id="artboard_1" />
    <clipPath id="clip_1">
      <use xlink:href="#artboard_1" clip-rule="evenodd" />
    </clipPath>
  </defs>
  <g id="mimeicon_html" clip-path="url(#clip_1)">
    <use xlink:href="#artboard_1" stroke="none" fill="#FFFFFF" fill-opacity="0" />
    <g id="Gruppieren" transform="translate(47 20)" artboard="7198ba47-3311-4c6b-a1dc-f6624235c17e">
      <path d="M108 3.8147e-06L162 54L162 216L0 216L0 1.52588e-05L108 1.52588e-05L108 3.8147e-06Z" id="Rechteck-Subtrahieren" fill="#EB5A00" fill-rule="evenodd" stroke="none" />
      <path d="M108 0L162 54L108 54L108 0Z" id="Dreieck" fill="#000000" fill-opacity="0.8509804" fill-rule="evenodd" stroke="none" />
    </g>
    <g id="" fill="#FFFFFF" transform="translate(85 99)" artboard="b786fc88-24f9-4285-bfb6-ed8df4b872a9">
      <path d="M52.7727 9.90909L41.5227 51.7045L33.5455 51.7045L44.7955 9.90909L52.7727 9.90909ZM3.95455 36.3636L3.95455 28.1818L29.3182 18.0227L29.3182 26.6136L13.4318 32.1023L13.4318 32.4432L29.3182 37.9318L29.3182 46.5227L3.95455 36.3636ZM57 46.5227L82.3636 36.3636L82.3636 28.1818L57 18.0227L57 26.6136L72.8864 32.1023L72.8864 32.4432L57 37.9318L57 46.5227Z" />
    </g>
  </g>
</svg>