<?xml version="1.0" encoding="utf-8"?>
<svg width="256px" height="256px" viewBox="0 0 256 256" version="1.1" xmlns:xlink="http://www.w3.org/1999/xlink" xmlns="http://www.w3.org/2000/svg">
  <defs>
    <rect width="256" height="256" id="artboard_1" />
    <clipPath id="clip_1">
      <use xlink:href="#artboard_1" clip-rule="evenodd" />
    </clipPath>
  </defs>
  <g id="mimeicon_alac" clip-path="url(#clip_1)">
    <use xlink:href="#artboard_1" stroke="none" fill="#FFFFFF" fill-opacity="0" />
    <g id="Gruppieren" transform="translate(47 20)" artboard="75c9c3ab-ba82-47e3-a607-f76ff4892f27">
      <path d="M108 3.8147e-06L162 54L162 216L0 216L0 1.52588e-05L108 1.52588e-05L108 3.8147e-06Z" id="Rechteck-Subtrahieren" fill="#00A1EB" fill-rule="evenodd" stroke="none" />
      <path d="M108 0L162 54L108 54L108 0Z" id="Dreieck" fill="#000000" fill-opacity="0.8509804" fill-rule="evenodd" stroke="none" />
    </g>
    <g id="ALAC" fill="#FFFFFF" transform="translate(61 99)" artboard="b807f5b5-a904-4269-9883-7c4b51736a00">
      <path d="M125.403 23.767L132.869 23.767Q132.392 19.7273 130.321 16.8892Q128.25 14.0511 125.003 12.5597Q121.756 11.0682 117.716 11.0682Q113.114 11.0682 109.432 13.1733Q105.75 15.2784 103.602 19.2841Q101.455 23.2898 101.455 29Q101.455 34.6932 103.577 38.6989Q105.699 42.7045 109.372 44.8182Q113.045 46.9318 117.716 46.9318Q122.199 46.9318 125.446 45.1761Q128.693 43.4205 130.585 40.5909Q132.477 37.7614 132.869 34.5568L125.403 34.5227Q124.875 37.3182 122.83 38.8608Q120.784 40.4034 117.835 40.4034Q113.864 40.4034 111.401 37.4972Q108.938 34.5909 108.938 29Q108.938 23.5455 111.384 20.571Q113.83 17.5966 117.886 17.5966Q120.92 17.5966 122.949 19.2415Q124.977 20.8864 125.403 23.767ZM1.14205 46.4545L9.05114 46.4545L11.642 38.4943L24.2386 38.4943L26.8295 46.4545L34.7386 46.4545L22.7045 11.5455L13.1932 11.5455L1.14205 46.4545ZM38.9318 11.5455L38.9318 46.4545L61.2784 46.4545L61.2784 40.3693L46.3125 40.3693L46.3125 11.5455L38.9318 11.5455ZM72.1875 46.4545L64.2784 46.4545L76.3295 11.5455L85.8409 11.5455L97.875 46.4545L89.9659 46.4545L87.375 38.4943L74.7784 38.4943L72.1875 46.4545ZM22.3807 32.733L13.517 32.733L17.8125 19.5227L18.0852 19.5227L22.3807 32.733ZM76.6534 32.733L85.517 32.733L81.2216 19.5227L80.9489 19.5227L76.6534 32.733Z" />
    </g>
  </g>
</svg>