<?xml version="1.0" encoding="utf-8"?>
<svg width="256px" height="256px" viewBox="0 0 256 256" version="1.1" xmlns:xlink="http://www.w3.org/1999/xlink" xmlns="http://www.w3.org/2000/svg">
  <defs>
    <rect width="256" height="256" id="artboard_1" />
    <clipPath id="clip_1">
      <use xlink:href="#artboard_1" clip-rule="evenodd" />
    </clipPath>
  </defs>
  <g id="mimeicon_py" clip-path="url(#clip_1)">
    <use xlink:href="#artboard_1" stroke="none" fill="#FFFFFF" fill-opacity="0" />
    <g id="Gruppieren" transform="translate(47 20)" artboard="1a1bda86-9fe8-42e4-ae4f-abbaa62242ba">
      <path d="M108 3.8147e-06L162 54L162 216L0 216L0 1.52588e-05L108 1.52588e-05L108 3.8147e-06Z" id="Rechteck-Subtrahieren" fill="#FFB200" fill-rule="evenodd" stroke="none" />
      <path d="M108 0L162 54L108 54L108 0Z" id="Dreieck" fill="#000000" fill-opacity="0.8509804" fill-rule="evenodd" stroke="none" />
    </g>
    <g id="py" fill="#211700" transform="translate(88 90)" artboard="d13a270e-93e0-43c1-866b-3136f9e737e0">
      <path d="M3.18182 26.8636L3.18182 74.8636L15.7273 74.8636L15.7273 56.0455L15.9091 56.0455Q17 58.7045 19.4773 60.4659Q21.9545 62.2273 25.6364 62.2273Q29.3636 62.2273 32.4886 60.2727Q35.6136 58.3182 37.4886 54.3409Q39.3636 50.3636 39.3636 44.3182Q39.3636 38 37.3977 34.0455Q35.4318 30.0909 32.3068 28.25Q29.1818 26.4091 25.7273 26.4091Q21.8409 26.4091 19.3864 28.3523Q16.9318 30.2955 15.9091 32.9545L15.6364 32.9545L15.6364 26.8636L3.18182 26.8636ZM44.7273 73.6364Q47.8409 74.8636 52.2727 74.8636Q56.6591 74.8636 59.5909 73.5227Q62.5227 72.1818 64.3295 69.875Q66.1364 67.5682 67.0909 64.6818L79.8182 26.8636L66.6364 26.8636L60.9091 51.0455L60.5455 51.0455L54.9091 26.8636L41.8182 26.8636L54.0909 63.3182L53.8182 63.9545Q53.1818 65.4091 51.4773 65.4773Q49.7727 65.5455 47.4545 64.7273L44.7273 73.6364ZM16.9318 50.3636Q15.4545 48.1364 15.4545 44.3182Q15.4545 40.4318 16.9318 38.2386Q18.4091 36.0455 21 36.0455Q23.5909 36.0455 25.0227 38.2386Q26.4545 40.4318 26.4545 44.3182Q26.4545 48.2045 25.0227 50.3977Q23.5909 52.5909 21 52.5909Q18.4091 52.5909 16.9318 50.3636Z" />
    </g>
  </g>
</svg>