<?xml version="1.0" encoding="utf-8"?>
<svg width="256px" height="256px" viewBox="0 0 256 256" version="1.1" xmlns:xlink="http://www.w3.org/1999/xlink" xmlns="http://www.w3.org/2000/svg">
  <defs>
    <rect width="256" height="256" id="artboard_1" />
    <clipPath id="clip_1">
      <use xlink:href="#artboard_1" clip-rule="evenodd" />
    </clipPath>
  </defs>
  <g id="mimeicon_docx" clip-path="url(#clip_1)">
    <use xlink:href="#artboard_1" stroke="none" fill="#FFFFFF" fill-opacity="0" />
    <g id="Gruppieren" transform="translate(47 20)" artboard="a7a0c9ec-0a1c-4494-8ecb-b170a9293c07">
      <path d="M108 3.8147e-06L162 54L162 216L0 216L0 1.52588e-05L108 1.52588e-05L108 3.8147e-06Z" id="Rechteck-Subtrahieren" fill="#0080FF" fill-rule="evenodd" stroke="none" />
      <path d="M108 0L162 54L108 54L108 0Z" id="Dreieck" fill="#000000" fill-opacity="0.8509804" fill-rule="evenodd" stroke="none" />
    </g>
    <g id="DOCX" fill="#FFFFFF" transform="translate(57 99)" artboard="32c55a19-394e-4a92-a472-801ee72a7cb3">
      <path d="M67.8665 38.7159Q70.0227 34.7102 70.0227 29Q70.0227 23.2898 67.8665 19.2841Q65.7102 15.2784 62.0114 13.1733Q58.3125 11.0682 53.6761 11.0682Q49.0227 11.0682 45.3239 13.1733Q41.625 15.2784 39.4773 19.2841Q37.3295 23.2898 37.3295 29Q37.3295 34.6761 39.4773 38.6903Q41.625 42.7045 45.3239 44.8182Q49.0227 46.9318 53.6761 46.9318Q58.3125 46.9318 62.0114 44.8267Q65.7102 42.7216 67.8665 38.7159ZM106.278 23.767L98.8125 23.767Q98.3864 20.8864 96.358 19.2415Q94.3295 17.5966 91.2955 17.5966Q87.2386 17.5966 84.7926 20.571Q82.3466 23.5455 82.3466 29Q82.3466 34.5909 84.8097 37.4972Q87.2727 40.4034 91.2443 40.4034Q94.1932 40.4034 96.2386 38.8608Q98.2841 37.3182 98.8125 34.5227L106.278 34.5568Q105.886 37.7614 103.994 40.5909Q102.102 43.4205 98.8551 45.1761Q95.608 46.9318 91.125 46.9318Q86.4545 46.9318 82.7813 44.8182Q79.108 42.7045 76.9858 38.6989Q74.8636 34.6932 74.8636 29Q74.8636 23.2898 77.0114 19.2841Q79.1591 15.2784 82.8409 13.1733Q86.5227 11.0682 91.125 11.0682Q95.1648 11.0682 98.4119 12.5597Q101.659 14.0511 103.73 16.8892Q105.801 19.7273 106.278 23.767ZM3.03409 46.4545L15.4091 46.4545Q20.7273 46.4545 24.554 44.358Q28.3807 42.2614 30.4347 38.3409Q32.4886 34.4205 32.4886 28.9659Q32.4886 23.5284 30.4432 19.625Q28.3977 15.7216 24.5881 13.6335Q20.7784 11.5455 15.5114 11.5455L3.03409 11.5455L3.03409 46.4545ZM125.54 23.4432L118.5 11.5455L110.131 11.5455L120.852 29L109.926 46.4545L118.381 46.4545L125.54 34.5398L125.813 34.5398L132.972 46.4545L141.46 46.4545L130.568 29L141.222 11.5455L132.886 11.5455L125.813 23.4432L125.54 23.4432ZM60.1193 20.5199Q62.5398 23.4432 62.5398 29Q62.5398 34.5398 60.1193 37.4716Q57.6989 40.4034 53.6761 40.4034Q49.6534 40.4034 47.233 37.4716Q44.8125 34.5398 44.8125 29Q44.8125 23.4432 47.233 20.5199Q49.6534 17.5966 53.6761 17.5966Q57.6989 17.5966 60.1193 20.5199ZM15.1023 40.1307L10.4148 40.1307L10.4148 17.8693L15.1193 17.8693Q20.0284 17.8693 22.5767 20.5114Q25.125 23.1534 25.125 28.9659Q25.125 34.8125 22.5767 37.4716Q20.0284 40.1307 15.1023 40.1307Z" />
    </g>
    <g id="W" fill="#FFFFFF" fill-opacity="0.6901961" transform="translate(103 157)" artboard="48019e2c-5445-4f12-a3da-9c4a8b6fe9a6">
      <path d="M10.892 46.4545L0.903409 11.5455L8.96591 11.5455L14.7443 35.8011L15.0341 35.8011L21.4091 11.5455L28.3125 11.5455L34.6705 35.8523L34.9773 35.8523L40.7557 11.5455L48.8182 11.5455L38.8295 46.4545L31.6364 46.4545L24.9886 23.6307L24.7159 23.6307L18.0852 46.4545L10.892 46.4545Z" />
    </g>
  </g>
</svg>