<?xml version="1.0" encoding="utf-8"?>
<svg width="256px" height="256px" viewBox="0 0 256 256" version="1.1" xmlns:xlink="http://www.w3.org/1999/xlink" xmlns="http://www.w3.org/2000/svg">
  <defs>
    <rect width="256" height="256" id="artboard_1" />
    <clipPath id="clip_1">
      <use xlink:href="#artboard_1" clip-rule="evenodd" />
    </clipPath>
  </defs>
  <g id="mimeicon_wma" clip-path="url(#clip_1)">
    <use xlink:href="#artboard_1" stroke="none" fill="#FFFFFF" fill-opacity="0" />
    <g id="Gruppieren" transform="translate(47 20)" artboard="83c23a94-3e3d-41f8-954a-d644faab863b">
      <path d="M108 3.8147e-06L162 54L162 216L0 216L0 1.52588e-05L108 1.52588e-05L108 3.8147e-06Z" id="Rechteck-Subtrahieren" fill="#00A1EB" fill-rule="evenodd" stroke="none" />
      <path d="M108 0L162 54L108 54L108 0Z" id="Dreieck" fill="#000000" fill-opacity="0.8509804" fill-rule="evenodd" stroke="none" />
    </g>
    <g id="WMA" fill="#FFFFFF" transform="translate(63 99)" artboard="f9551adc-764d-4059-9b7b-b928516a0269">
      <path d="M10.892 46.4545L0.903409 11.5455L8.96591 11.5455L14.7443 35.8011L15.0341 35.8011L21.4091 11.5455L28.3125 11.5455L34.6705 35.8523L34.9773 35.8523L40.7557 11.5455L48.8182 11.5455L38.8295 46.4545L31.6364 46.4545L24.9886 23.6307L24.7159 23.6307L18.0852 46.4545L10.892 46.4545ZM52.7557 11.5455L61.858 11.5455L71.4716 35L71.8807 35L81.4943 11.5455L90.5966 11.5455L90.5966 46.4545L83.4375 46.4545L83.4375 23.733L83.1477 23.733L74.1136 46.2841L69.2386 46.2841L60.2045 23.6477L59.9148 23.6477L59.9148 46.4545L52.7557 46.4545L52.7557 11.5455ZM94.7727 46.4545L102.682 46.4545L105.273 38.4943L117.869 38.4943L120.46 46.4545L128.369 46.4545L116.335 11.5455L106.824 11.5455L94.7727 46.4545ZM116.011 32.733L107.148 32.733L111.443 19.5227L111.716 19.5227L116.011 32.733Z" />
    </g>
  </g>
</svg>