<?xml version="1.0" encoding="utf-8"?>
<svg width="256px" height="256px" viewBox="0 0 256 256" version="1.1" xmlns:xlink="http://www.w3.org/1999/xlink" xmlns="http://www.w3.org/2000/svg">
  <defs>
    <rect width="256" height="256" id="artboard_1" />
    <clipPath id="clip_1">
      <use xlink:href="#artboard_1" clip-rule="evenodd" />
    </clipPath>
  </defs>
  <g id="mimeicon_doc" clip-path="url(#clip_1)">
    <use xlink:href="#artboard_1" stroke="none" fill="#FFFFFF" fill-opacity="0" />
    <g id="Gruppieren" transform="translate(47 20)" artboard="65aedc5d-6129-4dc3-8925-9c2fc8bfbf20">
      <path d="M108 3.8147e-06L162 54L162 216L0 216L0 1.52588e-05L108 1.52588e-05L108 3.8147e-06Z" id="Rechteck-Subtrahieren" fill="#0080FF" fill-rule="evenodd" stroke="none" />
      <path d="M108 0L162 54L108 54L108 0Z" id="Dreieck" fill="#000000" fill-opacity="0.8509804" fill-rule="evenodd" stroke="none" />
    </g>
    <g id="DOC" fill="#FFFFFF" transform="translate(74 99)" artboard="fe4a31b6-a61a-4d32-900a-39d5ddd72763">
      <path d="M70.0227 29Q70.0227 34.7102 67.8665 38.7159Q65.7102 42.7216 62.0114 44.8267Q58.3125 46.9318 53.6761 46.9318Q49.0227 46.9318 45.3239 44.8182Q41.625 42.7045 39.4773 38.6903Q37.3295 34.6761 37.3295 29Q37.3295 23.2898 39.4773 19.2841Q41.625 15.2784 45.3239 13.1733Q49.0227 11.0682 53.6761 11.0682Q58.3125 11.0682 62.0114 13.1733Q65.7102 15.2784 67.8665 19.2841Q70.0227 23.2898 70.0227 29ZM98.8125 23.767L106.278 23.767Q105.801 19.7273 103.73 16.8892Q101.659 14.0511 98.4119 12.5597Q95.1648 11.0682 91.125 11.0682Q86.5227 11.0682 82.8409 13.1733Q79.1591 15.2784 77.0114 19.2841Q74.8636 23.2898 74.8636 29Q74.8636 34.6932 76.9858 38.6989Q79.108 42.7045 82.7813 44.8182Q86.4545 46.9318 91.125 46.9318Q95.608 46.9318 98.8551 45.1761Q102.102 43.4205 103.994 40.5909Q105.886 37.7614 106.278 34.5568L98.8125 34.5227Q98.2841 37.3182 96.2386 38.8608Q94.1932 40.4034 91.2443 40.4034Q87.2727 40.4034 84.8097 37.4972Q82.3466 34.5909 82.3466 29Q82.3466 23.5455 84.7926 20.571Q87.2386 17.5966 91.2955 17.5966Q94.3295 17.5966 96.358 19.2415Q98.3864 20.8864 98.8125 23.767ZM15.4091 46.4545L3.03409 46.4545L3.03409 11.5455L15.5114 11.5455Q20.7784 11.5455 24.5881 13.6335Q28.3977 15.7216 30.4432 19.625Q32.4886 23.5284 32.4886 28.9659Q32.4886 34.4205 30.4347 38.3409Q28.3807 42.2614 24.554 44.358Q20.7273 46.4545 15.4091 46.4545ZM62.5398 29Q62.5398 23.4432 60.1193 20.5199Q57.6989 17.5966 53.6761 17.5966Q49.6534 17.5966 47.233 20.5199Q44.8125 23.4432 44.8125 29Q44.8125 34.5398 47.233 37.4716Q49.6534 40.4034 53.6761 40.4034Q57.6989 40.4034 60.1193 37.4716Q62.5398 34.5398 62.5398 29ZM10.4148 40.1307L15.1023 40.1307Q20.0284 40.1307 22.5767 37.4716Q25.125 34.8125 25.125 28.9659Q25.125 23.1534 22.5767 20.5114Q20.0284 17.8693 15.1193 17.8693L10.4148 17.8693L10.4148 40.1307Z" />
    </g>
    <g id="W" fill="#FFFFFF" fill-opacity="0.6901961" transform="translate(103 157)" artboard="60e54f25-1f7d-45c7-98bb-b9d0462e8496">
      <path d="M10.892 46.4545L0.903409 11.5455L8.96591 11.5455L14.7443 35.8011L15.0341 35.8011L21.4091 11.5455L28.3125 11.5455L34.6705 35.8523L34.9773 35.8523L40.7557 11.5455L48.8182 11.5455L38.8295 46.4545L31.6364 46.4545L24.9886 23.6307L24.7159 23.6307L18.0852 46.4545L10.892 46.4545Z" />
    </g>
  </g>
</svg>