<?xml version="1.0" encoding="utf-8"?>
<svg width="256px" height="256px" viewBox="0 0 256 256" version="1.1" xmlns:xlink="http://www.w3.org/1999/xlink" xmlns="http://www.w3.org/2000/svg">
  <defs>
    <rect width="256" height="256" id="artboard_1" />
    <clipPath id="clip_1">
      <use xlink:href="#artboard_1" clip-rule="evenodd" />
    </clipPath>
  </defs>
  <g id="mimeicon_pptx" clip-path="url(#clip_1)">
    <use xlink:href="#artboard_1" stroke="none" fill="#FFFFFF" fill-opacity="0" />
    <g id="Gruppieren" transform="translate(47 20)" artboard="23e1a5d9-479f-45a8-a4bf-290dc3e2b206">
      <path d="M108 3.8147e-06L162 54L162 216L0 216L0 1.52588e-05L108 1.52588e-05L108 3.8147e-06Z" id="Rechteck-Subtrahieren" fill="#FF5100" fill-rule="evenodd" stroke="none" />
      <path d="M108 0L162 54L108 54L108 0Z" id="Dreieck" fill="#000000" fill-opacity="0.8509804" fill-rule="evenodd" stroke="none" />
    </g>
    <g id="PPTX" fill="#FFFFFF" transform="translate(64 99)" artboard="55e8362f-dcb8-4cf3-a8ab-516e08b28a24">
      <path d="M3.03409 11.5455L3.03409 46.4545L10.4148 46.4545L10.4148 35.1364L16.6193 35.1364Q20.642 35.1364 23.4801 33.6449Q26.3182 32.1534 27.8182 29.5028Q29.3182 26.8523 29.3182 23.375Q29.3182 19.8977 27.8438 17.2301Q26.3693 14.5625 23.5739 13.054Q20.7784 11.5455 16.8068 11.5455L3.03409 11.5455ZM34.125 11.5455L34.125 46.4545L41.5057 46.4545L41.5057 35.1364L47.7102 35.1364Q51.733 35.1364 54.571 33.6449Q57.4091 32.1534 58.9091 29.5028Q60.4091 26.8523 60.4091 23.375Q60.4091 19.8977 58.9347 17.2301Q57.4602 14.5625 54.6648 13.054Q51.8693 11.5455 47.8977 11.5455L34.125 11.5455ZM63.8864 17.6307L63.8864 11.5455L92.5568 11.5455L92.5568 17.6307L81.8693 17.6307L81.8693 46.4545L74.5739 46.4545L74.5739 17.6307L63.8864 17.6307ZM111.256 23.4432L104.216 11.5455L95.8466 11.5455L106.568 29L95.6421 46.4545L104.097 46.4545L111.256 34.5398L111.528 34.5398L118.688 46.4545L127.176 46.4545L116.284 29L126.938 11.5455L118.602 11.5455L111.528 23.4432L111.256 23.4432ZM15.4261 29.2216L10.4148 29.2216L10.4148 17.5795L15.392 17.5795Q18.5966 17.5795 20.1563 19.1733Q21.7159 20.767 21.7159 23.375Q21.7159 25.9659 20.1563 27.5937Q18.5966 29.2216 15.4261 29.2216ZM46.517 29.2216L41.5057 29.2216L41.5057 17.5795L46.483 17.5795Q49.6875 17.5795 51.2472 19.1733Q52.8068 20.767 52.8068 23.375Q52.8068 25.9659 51.2472 27.5937Q49.6875 29.2216 46.517 29.2216Z" />
    </g>
    <g id="P" fill="#FFFFFF" fill-opacity="0.6901961" transform="translate(113 157)" artboard="a5c1afce-2056-4eeb-ad17-bf8df5bf2c9e">
      <path d="M3.03409 46.4545L3.03409 11.5455L16.8068 11.5455Q20.7784 11.5455 23.5739 13.054Q26.3693 14.5625 27.8438 17.2301Q29.3182 19.8977 29.3182 23.375Q29.3182 26.8523 27.8182 29.5028Q26.3182 32.1534 23.4801 33.6449Q20.642 35.1364 16.6193 35.1364L10.4148 35.1364L10.4148 46.4545L3.03409 46.4545ZM10.4148 29.2216L15.4261 29.2216Q18.5966 29.2216 20.1563 27.5937Q21.7159 25.9659 21.7159 23.375Q21.7159 20.767 20.1563 19.1733Q18.5966 17.5795 15.392 17.5795L10.4148 17.5795L10.4148 29.2216Z" />
    </g>
  </g>
</svg>