<?xml version="1.0" encoding="utf-8"?>
<svg width="256px" height="256px" viewBox="0 0 256 256" version="1.1" xmlns:xlink="http://www.w3.org/1999/xlink" xmlns="http://www.w3.org/2000/svg">
  <defs>
    <rect width="256" height="256" id="artboard_1" />
    <clipPath id="clip_1">
      <use xlink:href="#artboard_1" clip-rule="evenodd" />
    </clipPath>
  </defs>
  <g id="mimeicon_jpeg" clip-path="url(#clip_1)">
    <use xlink:href="#artboard_1" stroke="none" fill="#FFFFFF" fill-opacity="0" />
    <g id="Gruppieren" transform="translate(47 20)" artboard="bd428131-60b6-4b97-a465-5fab06fbf6b1">
      <path d="M108 3.8147e-06L162 54L162 216L0 216L0 1.52588e-05L108 1.52588e-05L108 3.8147e-06Z" id="Rechteck-Subtrahieren" fill="#EB0800" fill-rule="evenodd" stroke="none" />
      <path d="M108 0L162 54L108 54L108 0Z" id="Dreieck" fill="#000000" fill-opacity="0.8509804" fill-rule="evenodd" stroke="none" />
    </g>
    <g id="JPG" fill="#FFFFFF" transform="translate(81 99)" artboard="39fbad43-e86a-49d5-9e49-afd261fd3d44">
      <path d="M82.0483 18.9858Q83.9318 20.375 84.6307 22.8295L92.1307 22.8295Q91.6534 19.3693 89.608 16.7187Q87.5625 14.0682 84.358 12.5682Q81.1534 11.0682 77.1989 11.0682Q72.5966 11.0682 68.8977 13.1989Q65.1989 15.3295 63.0341 19.3523Q60.8693 23.375 60.8693 29.0341Q60.8693 34.5568 62.9403 38.571Q65.0114 42.5852 68.7273 44.7585Q72.4432 46.9318 77.3523 46.9318Q81.767 46.9318 85.1676 45.1591Q88.5682 43.3864 90.5114 40.071Q92.4545 36.7557 92.4545 32.1705L92.4545 27.7727L77.8466 27.7727L77.8466 33.3295L85.3466 33.3295Q85.2784 36.5682 83.1733 38.4858Q81.0682 40.4034 77.3864 40.4034Q73.2273 40.4034 70.7898 37.4205Q68.3523 34.4375 68.3523 28.9659Q68.3523 23.5114 70.8324 20.554Q73.3125 17.5966 77.3182 17.5966Q80.1648 17.5966 82.0483 18.9858ZM17.0114 11.5455L24.3068 11.5455L24.3068 35.8864Q24.3068 39.2614 22.7983 41.7415Q21.2898 44.2216 18.6136 45.5767Q15.9375 46.9318 12.392 46.9318Q9.23864 46.9318 6.6733 45.8068Q4.10795 44.6818 2.60795 42.3977Q1.10795 40.1136 1.125 36.6364L8.47159 36.6364Q8.50568 38.7159 9.6733 39.8665Q10.8409 41.017 12.767 41.017Q16.9773 41.017 17.0114 35.8864L17.0114 11.5455ZM30.392 46.4545L30.392 11.5455L44.1648 11.5455Q48.1364 11.5455 50.9318 13.054Q53.7273 14.5625 55.2017 17.2301Q56.6761 19.8977 56.6761 23.375Q56.6761 26.8523 55.1761 29.5028Q53.6761 32.1534 50.8381 33.6449Q48 35.1364 43.9773 35.1364L37.7727 35.1364L37.7727 46.4545L30.392 46.4545ZM37.7727 29.2216L42.7841 29.2216Q45.9545 29.2216 47.5142 27.5937Q49.0739 25.9659 49.0739 23.375Q49.0739 20.767 47.5142 19.1733Q45.9545 17.5795 42.75 17.5795L37.7727 17.5795L37.7727 29.2216Z" />
    </g>
    <path d="M87.5 155L128 236L47 236L87.5 155Z" id="Dreieck" fill="#FFFFFF" fill-opacity="0.72156864" fill-rule="evenodd" stroke="none" artboard="8ce7dd83-d47e-437e-b283-1c44e4c6489a" />
    <path d="M121 170L154 236L88 236L121 170Z" id="Dreieck-2" fill="#FFE5E4" fill-rule="evenodd" stroke="none" artboard="e9ea801c-afbf-4c7a-90a7-b99e98bf825d" />
    <path d="M160.5 157L200 236L121 236L160.5 157Z" id="Dreieck-3" fill="#FFFCFC" fill-rule="evenodd" stroke="none" artboard="086136b4-f0a7-46dd-8067-64c570443e34" />
  </g>
</svg>