<?xml version="1.0" encoding="utf-8"?>
<svg width="256px" height="256px" viewBox="0 0 256 256" version="1.1" xmlns:xlink="http://www.w3.org/1999/xlink" xmlns="http://www.w3.org/2000/svg">
  <defs>
    <rect width="256" height="256" id="artboard_1" />
    <clipPath id="clip_1">
      <use xlink:href="#artboard_1" clip-rule="evenodd" />
    </clipPath>
  </defs>
  <g id="mimeicon_webm" clip-path="url(#clip_1)">
    <use xlink:href="#artboard_1" stroke="none" fill="#FFFFFF" fill-opacity="0" />
    <g id="Gruppieren" transform="translate(47 20)" artboard="70845b49-f359-4fde-b6cf-def8fa38c219">
      <path d="M108 3.8147e-06L162 54L162 216L0 216L0 1.52588e-05L108 1.52588e-05L108 3.8147e-06Z" id="Rechteck-Subtrahieren" fill="#00EB5A" fill-rule="evenodd" stroke="none" />
      <path d="M108 0L162 54L108 54L108 0Z" id="Dreieck" fill="#000000" fill-opacity="0.8509804" fill-rule="evenodd" stroke="none" />
    </g>
    <g id="WEBM" fill="#FFFFFF" transform="translate(51 99)" artboard="aacddecd-414f-4384-a9b3-86fcefea3196">
      <path d="M0.903409 11.5455L10.892 46.4545L18.0852 46.4545L24.7159 23.6307L24.9886 23.6307L31.6364 46.4545L38.8295 46.4545L48.8182 11.5455L40.7557 11.5455L34.9773 35.8523L34.6705 35.8523L28.3125 11.5455L21.4091 11.5455L15.0341 35.8011L14.7443 35.8011L8.96591 11.5455L0.903409 11.5455ZM52.7557 11.5455L52.7557 46.4545L76.3466 46.4545L76.3466 40.3693L60.1364 40.3693L60.1364 32.0341L75.0682 32.0341L75.0682 25.9489L60.1364 25.9489L60.1364 17.6307L76.2784 17.6307L76.2784 11.5455L52.7557 11.5455ZM82.1591 46.4545L82.1591 11.5455L96.1364 11.5455Q101.915 11.5455 104.821 14.0597Q107.727 16.5739 107.727 20.4943Q107.727 23.5795 105.938 25.4801Q104.148 27.3807 101.42 27.9943L101.42 28.3352Q103.415 28.4205 105.162 29.4602Q106.909 30.5 108 32.358Q109.091 34.2159 109.091 36.8068Q109.091 39.5852 107.719 41.767Q106.347 43.9489 103.67 45.2017C101.886 46.0369 99.6875 46.4545 97.0739 46.4545L82.1591 46.4545ZM122.983 11.5455L113.881 11.5455L113.881 46.4545L121.04 46.4545L121.04 23.6477L121.33 23.6477L130.364 46.2841L135.239 46.2841L144.273 23.733L144.563 23.733L144.563 46.4545L151.722 46.4545L151.722 11.5455L142.619 11.5455L133.006 35L132.597 35L122.983 11.5455ZM89.5398 26.1534L95.0114 26.1534Q97.2784 26.1534 98.7784 24.9687Q100.278 23.7841 100.278 21.7216Q100.278 19.8295 98.9403 18.6705Q97.6023 17.5114 95.1477 17.5114L89.5398 17.5114L89.5398 26.1534ZM89.5398 40.4205L95.5568 40.4205Q98.6591 40.4205 100.065 39.2273Q101.472 38.0341 101.472 36.0739Q101.472 33.9091 99.929 32.5284Q98.3864 31.1477 95.7273 31.1477L89.5398 31.1477L89.5398 40.4205Z" />
    </g>
    <path d="M87.5 155L128 236L47 236L87.5 155Z" id="Dreieck" fill="#FFFFFF" fill-opacity="0.72156864" fill-rule="evenodd" stroke="none" artboard="c20b48f6-1250-45a0-a6ce-2b85beb8fca8" />
    <path d="M121 170L154 236L88 236L121 170Z" id="Dreieck-2" fill="#E4FFED" fill-rule="evenodd" stroke="none" artboard="1706f88a-dd78-4337-b0a6-de928469c943" />
    <path d="M160.5 157L200 236L121 236L160.5 157Z" id="Dreieck-3" fill="#FCFFFD" fill-rule="evenodd" stroke="none" artboard="fedbfb6f-2d64-45fa-b450-6ed18ee6ec4b" />
  </g>
</svg>