<?xml version="1.0" encoding="utf-8"?>
<svg width="256px" height="256px" viewBox="0 0 256 256" version="1.1" xmlns:xlink="http://www.w3.org/1999/xlink" xmlns="http://www.w3.org/2000/svg">
  <defs>
    <rect width="256" height="256" id="artboard_1" />
    <clipPath id="clip_1">
      <use xlink:href="#artboard_1" clip-rule="evenodd" />
    </clipPath>
  </defs>
  <g id="mimeicon_png" clip-path="url(#clip_1)">
    <use xlink:href="#artboard_1" stroke="none" fill="#FFFFFF" fill-opacity="0" />
    <g id="Gruppieren" transform="translate(47 20)" artboard="657a1240-6dff-4608-bb1d-9c81c0542c61">
      <path d="M108 3.8147e-06L162 54L162 216L0 216L0 1.52588e-05L108 1.52588e-05L108 3.8147e-06Z" id="Rechteck-Subtrahieren" fill="#EB0800" fill-rule="evenodd" stroke="none" />
      <path d="M108 0L162 54L108 54L108 0Z" id="Dreieck" fill="#000000" fill-opacity="0.8509804" fill-rule="evenodd" stroke="none" />
    </g>
    <g id="PNG" fill="#FFFFFF" transform="translate(77 99)" artboard="f2f3b2d6-13b8-42c2-8a38-938f7175f97a">
      <path d="M89.9744 18.9858Q91.858 20.375 92.5568 22.8295L100.057 22.8295Q99.5795 19.3693 97.5341 16.7187Q95.4886 14.0682 92.2841 12.5682Q89.0795 11.0682 85.125 11.0682Q80.5227 11.0682 76.8239 13.1989Q73.125 15.3295 70.9602 19.3523Q68.7955 23.375 68.7955 29.0341Q68.7955 34.5568 70.8665 38.571Q72.9375 42.5852 76.6534 44.7585Q80.3693 46.9318 85.2784 46.9318Q89.6932 46.9318 93.0938 45.1591Q96.4943 43.3864 98.4375 40.071Q100.381 36.7557 100.381 32.1705L100.381 27.7727L85.7727 27.7727L85.7727 33.3295L93.2727 33.3295Q93.2045 36.5682 91.0994 38.4858Q88.9943 40.4034 85.3125 40.4034Q81.1534 40.4034 78.7159 37.4205Q76.2784 34.4375 76.2784 28.9659Q76.2784 23.5114 78.7585 20.554Q81.2386 17.5966 85.2443 17.5966Q88.0909 17.5966 89.9744 18.9858ZM3.03409 46.4545L3.03409 11.5455L16.8068 11.5455Q20.7784 11.5455 23.5739 13.054Q26.3693 14.5625 27.8438 17.2301Q29.3182 19.8977 29.3182 23.375Q29.3182 26.8523 27.8182 29.5028Q26.3182 32.1534 23.4801 33.6449Q20.642 35.1364 16.6193 35.1364L10.4148 35.1364L10.4148 46.4545L3.03409 46.4545ZM63.3239 11.5455L63.3239 46.4545L56.9489 46.4545L41.7614 24.483L41.5057 24.483L41.5057 46.4545L34.125 46.4545L34.125 11.5455L40.6023 11.5455L55.6705 33.5L55.9773 33.5L55.9773 11.5455L63.3239 11.5455ZM10.4148 29.2216L15.4261 29.2216Q18.5966 29.2216 20.1563 27.5937Q21.7159 25.9659 21.7159 23.375Q21.7159 20.767 20.1563 19.1733Q18.5966 17.5795 15.392 17.5795L10.4148 17.5795L10.4148 29.2216Z" />
    </g>
    <path d="M87.5 155L128 236L47 236L87.5 155Z" id="Dreieck" fill="#FFFFFF" fill-opacity="0.72156864" fill-rule="evenodd" stroke="none" artboard="5221046b-d1dd-4f2a-b20f-9862a9b0ac12" />
    <path d="M121 170L154 236L88 236L121 170Z" id="Dreieck-2" fill="#FFE5E4" fill-rule="evenodd" stroke="none" artboard="3126cd5d-1b48-4bc6-85d6-d0bde44a0f05" />
    <path d="M160.5 157L200 236L121 236L160.5 157Z" id="Dreieck-3" fill="#FFFCFC" fill-rule="evenodd" stroke="none" artboard="7bba3148-9070-40bc-b014-b4a098d3c635" />
  </g>
</svg>