<?xml version="1.0" encoding="utf-8"?>
<svg width="256px" height="256px" viewBox="0 0 256 256" version="1.1" xmlns:xlink="http://www.w3.org/1999/xlink" xmlns="http://www.w3.org/2000/svg">
  <defs>
    <rect width="256" height="256" id="artboard_1" />
    <clipPath id="clip_1">
      <use xlink:href="#artboard_1" clip-rule="evenodd" />
    </clipPath>
  </defs>
  <g id="mimeicon_xls" clip-path="url(#clip_1)">
    <use xlink:href="#artboard_1" stroke="none" fill="#FFFFFF" fill-opacity="0" />
    <g id="Gruppieren" transform="translate(47 20)" artboard="afe9a8ef-e833-44c5-9907-50b9c385837f">
      <path d="M108 3.8147e-06L162 54L162 216L0 216L0 1.52588e-05L108 1.52588e-05L108 3.8147e-06Z" id="Rechteck-Subtrahieren" fill="#00E231" fill-rule="evenodd" stroke="none" />
      <path d="M108 0L162 54L108 54L108 0Z" id="Dreieck" fill="#000000" fill-opacity="0.8509804" fill-rule="evenodd" stroke="none" />
    </g>
    <g id="XLSM" fill="#FFFFFF" transform="translate(60 99)" artboard="c7ef0393-8af8-4cfd-b0c3-d2acfeb92873">
      <path d="M83.5057 21.5852Q83.3011 19.5227 81.7415 18.3807Q80.1818 17.2386 77.5398 17.2386Q74.8296 17.2386 73.3807 18.3466Q71.9318 19.4545 71.9318 21.142Q71.8977 23.017 73.5426 23.9801Q75.1875 24.9432 77.4545 25.4716L80.5909 26.2216Q83.625 26.9034 85.9858 28.1989Q88.3466 29.4943 89.7017 31.5312Q91.0568 33.5682 91.0568 36.483Q91.0398 41.2727 87.4688 44.1108Q83.8977 46.9489 77.5057 46.9489Q71.1477 46.9489 67.3636 44.0511Q63.5795 41.1534 63.4432 35.4943L70.5852 35.4943Q70.7727 38.1193 72.6563 39.4403Q74.5398 40.7614 77.4205 40.7614Q80.233 40.7614 81.9119 39.5682Q83.5909 38.375 83.608 36.4659Q83.5909 34.6932 82.0568 33.7386Q80.5227 32.7841 77.6761 32.1023L73.875 31.1477Q69.4602 30.0909 66.9034 27.7898Q64.3466 25.4886 64.3636 21.6364Q64.3466 18.4659 66.0597 16.0881Q67.7727 13.7102 70.7727 12.3892Q73.7727 11.0682 77.5909 11.0682Q81.4773 11.0682 84.3835 12.3977Q87.2898 13.7273 88.9091 16.0966Q90.5284 18.4659 90.5795 21.5852L83.5057 21.5852ZM16.9943 23.4432L9.95455 11.5455L1.58523 11.5455L12.3068 29L1.38068 46.4545L9.83523 46.4545L16.9943 34.5398L17.267 34.5398L24.4261 46.4545L32.9148 46.4545L22.0227 29L32.6761 11.5455L24.3409 11.5455L17.267 23.4432L16.9943 23.4432ZM44.7102 11.5455L37.3295 11.5455L37.3295 46.4545L59.6761 46.4545L59.6761 40.3693L44.7102 40.3693L44.7102 11.5455ZM105.102 11.5455L96 11.5455L96 46.4545L103.159 46.4545L103.159 23.6477L103.449 23.6477L112.483 46.2841L117.358 46.2841L126.392 23.733L126.682 23.733L126.682 46.4545L133.841 46.4545L133.841 11.5455L124.739 11.5455L115.125 35L114.716 35L105.102 11.5455Z" />
    </g>
    <g id="X" fill="#FFFFFF" fill-opacity="0.6901961" transform="translate(111 157)" artboard="e5d1b21f-99ae-464e-8588-6cb5d4de4d43">
      <path d="M9.95455 11.5455L16.9943 23.4432L17.267 23.4432L24.3409 11.5455L32.6761 11.5455L22.0227 29L32.9148 46.4545L24.4261 46.4545L17.267 34.5398L16.9943 34.5398L9.83523 46.4545L1.38068 46.4545L12.3068 29L1.58523 11.5455L9.95455 11.5455Z" />
    </g>
    <g id="{}" fill="#FFFFFF" fill-opacity="0.8784314" transform="translate(57 30)" artboard="a72cea20-d461-41c5-9520-8800b21c70d9">
      <path d="M19.1186 8.65341Q17.5014 8.41051 15.5582 8.41051L15.5582 12.4886Q17.8338 12.4886 18.5178 13.3771Q19.2017 14.2656 19.2017 16.1193L19.2017 19.8523Q19.2017 20.8366 19.5661 21.7187Q19.9304 22.6009 20.9148 23.2784Q21.8991 23.956 23.7528 24.3395L23.7528 24.8509Q21.8991 25.2344 20.9148 25.9119Q19.9304 26.5895 19.5661 27.4652Q19.2017 28.3409 19.2017 29.3253L19.2017 33.0582Q19.2017 34.9119 18.5178 35.8068Q17.8338 36.7017 15.5582 36.7017L15.5582 40.767Q17.5014 40.767 19.1186 40.5241Q20.7358 40.2813 21.9247 39.5526Q23.1136 38.8239 23.7656 37.3984Q24.4176 35.973 24.4176 33.608L24.4176 30.7827Q24.4176 28.8139 25.2805 27.9318Q26.1435 27.0497 28.3423 27.0497L28.3423 22.1406Q26.1435 22.1406 25.2805 21.2585Q24.4176 20.3764 24.4176 18.4077L24.4176 15.5696Q24.4176 13.2045 23.7656 11.7791Q23.1136 10.3537 21.9247 9.625Q20.7358 8.89631 19.1186 8.65341ZM10.3423 40.5369Q11.9659 40.7798 13.8963 40.7798L13.8963 36.7017Q11.6207 36.7017 10.9368 35.8132Q10.2528 34.9247 10.2528 33.071L10.2528 29.3381Q10.2528 28.3537 9.88849 27.4716Q9.52415 26.5895 8.53977 25.9119Q7.5554 25.2344 5.7017 24.8509L5.7017 24.3395Q7.5554 23.956 8.53977 23.2784Q9.52415 22.6009 9.88849 21.7251Q10.2528 20.8494 10.2528 19.8651L10.2528 16.1321Q10.2528 14.2656 10.9368 13.3771Q11.6207 12.4886 13.8963 12.4886L13.8963 8.42329Q11.9659 8.4233 10.3423 8.66619Q8.71875 8.90909 7.52983 9.63778Q6.34091 10.3665 5.68892 11.7919Q5.03693 13.2173 5.03693 15.5824L5.03693 18.4077Q5.03693 20.3764 4.1804 21.2585Q3.32386 22.1406 1.11222 22.1406L1.11222 27.0497Q3.32386 27.0497 4.1804 27.9318Q5.03693 28.8139 5.03693 30.7827L5.03693 33.6207Q5.03693 35.9858 5.68892 37.4112Q6.34091 38.8366 7.52983 39.5653Q8.71875 40.294 10.3423 40.5369Z" />
    </g>
  </g>
</svg>