<?xml version="1.0" encoding="utf-8"?>
<svg width="256px" height="256px" viewBox="0 0 256 256" version="1.1" xmlns:xlink="http://www.w3.org/1999/xlink" xmlns="http://www.w3.org/2000/svg">
  <defs>
    <rect width="256" height="256" id="artboard_1" />
    <clipPath id="clip_1">
      <use xlink:href="#artboard_1" clip-rule="evenodd" />
    </clipPath>
  </defs>
  <g id="mimeicon_flac-2" clip-path="url(#clip_1)">
    <use xlink:href="#artboard_1" stroke="none" fill="#FFFFFF" fill-opacity="0" />
    <g id="Gruppieren" transform="translate(47 20)" artboard="762dc0e0-abc2-463b-be57-501cf53d90e5">
      <path d="M108 3.8147e-06L162 54L162 216L0 216L0 1.52588e-05L108 1.52588e-05L108 3.8147e-06Z" id="Rechteck-Subtrahieren" fill="#00A1EB" fill-rule="evenodd" stroke="none" />
      <path d="M108 0L162 54L108 54L108 0Z" id="Dreieck" fill="#000000" fill-opacity="0.8509804" fill-rule="evenodd" stroke="none" />
    </g>
    <g id="FLAC" fill="#FFFFFF" transform="translate(65 99)" artboard="8e8b66f9-3ca3-441b-8f64-7be0e6b0253c">
      <path d="M117.58 23.767L125.045 23.767Q124.568 19.7273 122.497 16.8892Q120.426 14.0511 117.179 12.5597Q113.932 11.0682 109.892 11.0682Q105.29 11.0682 101.608 13.1733Q97.9261 15.2784 95.7784 19.2841Q93.6307 23.2898 93.6307 29Q93.6307 34.6932 95.7528 38.6989Q97.875 42.7045 101.548 44.8182Q105.222 46.9318 109.892 46.9318Q114.375 46.9318 117.622 45.1761Q120.869 43.4205 122.761 40.5909Q124.653 37.7614 125.045 34.5568L117.58 34.5227Q117.051 37.3182 115.006 38.8608Q112.96 40.4034 110.011 40.4034Q106.04 40.4034 103.577 37.4972Q101.114 34.5909 101.114 29Q101.114 23.5455 103.56 20.571Q106.006 17.5966 110.063 17.5966Q113.097 17.5966 115.125 19.2415Q117.153 20.8864 117.58 23.767ZM3.03409 11.5455L3.03409 46.4545L10.4148 46.4545L10.4148 32.0341L24.6136 32.0341L24.6136 25.9489L10.4148 25.9489L10.4148 17.6307L26.1477 17.6307L26.1477 11.5455L3.03409 11.5455ZM31.108 11.5455L31.108 46.4545L53.4545 46.4545L53.4545 40.3693L38.4886 40.3693L38.4886 11.5455L31.108 11.5455ZM64.3636 46.4545L56.4545 46.4545L68.5057 11.5455L78.017 11.5455L90.0511 46.4545L82.142 46.4545L79.5511 38.4943L66.9545 38.4943L64.3636 46.4545ZM68.8295 32.733L77.6932 32.733L73.3977 19.5227L73.125 19.5227L68.8295 32.733Z" />
    </g>
  </g>
</svg>