<?xml version="1.0" encoding="utf-8"?>
<svg width="256px" height="256px" viewBox="0 0 256 256" version="1.1" xmlns:xlink="http://www.w3.org/1999/xlink" xmlns="http://www.w3.org/2000/svg">
  <defs>
    <rect width="256" height="256" id="artboard_1" />
    <clipPath id="clip_1">
      <use xlink:href="#artboard_1" clip-rule="evenodd" />
    </clipPath>
  </defs>
  <g id="mimeicon_mp3" clip-path="url(#clip_1)">
    <use xlink:href="#artboard_1" stroke="none" fill="#FFFFFF" fill-opacity="0" />
    <g id="Gruppieren" transform="translate(47 20)" artboard="4d0f358c-005c-41a9-8052-322fa1cfb3e2">
      <path d="M108 3.8147e-06L162 54L162 216L0 216L0 1.52588e-05L108 1.52588e-05L108 3.8147e-06Z" id="Rechteck-Subtrahieren" fill="#00A1EB" fill-rule="evenodd" stroke="none" />
      <path d="M108 0L162 54L108 54L108 0Z" id="Dreieck" fill="#000000" fill-opacity="0.8509804" fill-rule="evenodd" stroke="none" />
    </g>
    <g id="MP3" fill="#FFFFFF" transform="translate(75 99)" artboard="6b16b52c-5022-4f68-a74f-d49ecff6992a">
      <path d="M83.9318 45.6193Q86.8977 46.9318 90.733 46.9318Q94.6534 46.9318 97.6875 45.6023Q100.722 44.2727 102.452 41.9545Q104.182 39.6364 104.165 36.6534Q104.182 33.3977 102.162 31.2159Q100.142 29.0341 96.2898 28.5568L96.2898 28.2841Q99.2216 27.7557 101.054 25.7955Q102.886 23.8352 102.869 20.9034Q102.886 18.142 101.378 15.9176Q99.8693 13.6932 97.1591 12.3807Q94.4489 11.0682 90.8352 11.0682Q87.2557 11.0682 84.4176 12.3636Q81.5795 13.6591 79.9091 15.9687Q78.2386 18.2784 78.1875 21.2955L85.2614 21.2955Q85.3295 19.3011 86.9318 18.108Q88.5341 16.9148 90.8011 16.9148Q93.0341 16.9148 94.4063 18.142Q95.7784 19.3693 95.7614 21.3466Q95.7784 23.4091 94.1932 24.679Q92.608 25.9489 90.0852 25.9489L86.8295 25.9489L86.8295 31.3693L90.0852 31.3693Q93.0511 31.3693 94.7813 32.7074Q96.5114 34.0455 96.4943 36.1591Q96.5114 38.2386 94.9006 39.5426Q93.2898 40.8466 90.75 40.8466Q88.3125 40.8466 86.6676 39.6705Q85.0227 38.4943 84.9205 36.5852L77.4886 36.5852Q77.5568 39.6364 79.2614 41.9716Q80.9659 44.3068 83.9318 45.6193ZM3.03409 11.5455L12.1364 11.5455L21.75 35L22.1591 35L31.7727 11.5455L40.875 11.5455L40.875 46.4545L33.7159 46.4545L33.7159 23.733L33.4261 23.733L24.392 46.2841L19.517 46.2841L10.483 23.6477L10.1932 23.6477L10.1932 46.4545L3.03409 46.4545L3.03409 11.5455ZM46.9432 46.4545L46.9432 11.5455L60.7159 11.5455Q64.6875 11.5455 67.483 13.054Q70.2784 14.5625 71.7528 17.2301Q73.2273 19.8977 73.2273 23.375Q73.2273 26.8523 71.7273 29.5028Q70.2273 32.1534 67.3892 33.6449Q64.5511 35.1364 60.5284 35.1364L54.3239 35.1364L54.3239 46.4545L46.9432 46.4545ZM54.3239 29.2216L59.3352 29.2216Q62.5057 29.2216 64.0653 27.5937Q65.625 25.9659 65.625 23.375Q65.625 20.767 64.0653 19.1733Q62.5057 17.5795 59.3011 17.5795L54.3239 17.5795L54.3239 29.2216Z" />
    </g>
  </g>
</svg>