<?xml version="1.0" encoding="utf-8"?>
<svg width="256px" height="256px" viewBox="0 0 256 256" version="1.1" xmlns:xlink="http://www.w3.org/1999/xlink" xmlns="http://www.w3.org/2000/svg">
  <defs>
    <rect width="256" height="256" id="artboard_1" />
    <clipPath id="clip_1">
      <use xlink:href="#artboard_1" clip-rule="evenodd" />
    </clipPath>
  </defs>
  <g id="mimeicon_js" clip-path="url(#clip_1)">
    <use xlink:href="#artboard_1" stroke="none" fill="#FFFFFF" fill-opacity="0" />
    <g id="Gruppieren" transform="translate(47 20)" artboard="e7d5e33c-bd45-4c6d-9b33-ba9f96b28f12">
      <path d="M108 3.8147e-06L162 54L162 216L0 216L0 1.52588e-05L108 1.52588e-05L108 3.8147e-06Z" id="Rechteck-Subtrahieren" fill="#EBA400" fill-rule="evenodd" stroke="none" />
      <path d="M108 0L162 54L108 54L108 0Z" id="Dreieck" fill="#000000" fill-opacity="0.8509804" fill-rule="evenodd" stroke="none" />
    </g>
    <g id="{}" fill="#FFFFFF" transform="translate(97 85)" artboard="639ba3a6-91cc-4ddd-9dbd-ef7f0c69f985">
      <path d="M22.9347 81.277Q26.642 81.5455 30.5795 81.5455L30.5795 71.3182Q27.5114 71.3182 26.0284 70.6278Q24.5455 69.9375 24.0852 68.5185Q23.625 67.0994 23.625 64.9773L23.625 59.3523Q23.625 57.4602 22.7813 55.6449Q21.9375 53.8295 19.6875 52.3594Q17.4375 50.8892 13.1932 50.0455L13.1932 48.8182Q17.4375 47.9744 19.6875 46.5043Q21.9375 45.0341 22.7813 43.2187Q23.625 41.4034 23.625 39.5114L23.625 33.8864Q23.625 31.7386 24.0852 30.3324Q24.5455 28.9261 26.0284 28.2358Q27.5114 27.5454 30.5795 27.5454L30.5795 17.3182Q26.642 17.3182 22.9347 17.5866Q19.2273 17.8551 16.2997 19.1591Q13.3722 20.4631 11.6463 23.4929Q9.92045 26.5227 9.92045 32.0454L9.92045 36.0341Q9.92045 39.7926 8.18182 41.544Q6.44318 43.2955 1.94318 43.2955L1.94318 55.5682Q6.44318 55.5682 8.18182 57.3196Q9.92045 59.071 9.92045 62.8295L9.92045 66.8182Q9.92045 72.3409 11.6463 75.3707Q13.3722 78.4006 16.2997 79.7045Q19.2273 81.0085 22.9347 81.277ZM40.4872 17.5866Q36.7926 17.3182 32.8295 17.3182L32.8295 27.5454Q35.8977 27.5455 37.3807 28.2358Q38.8636 28.9261 39.3239 30.3324Q39.7841 31.7386 39.7841 33.8864L39.7841 39.5114Q39.7841 41.4034 40.6278 43.2187Q41.4716 45.0341 43.7216 46.5043Q45.9716 47.9744 50.2159 48.8182L50.2159 50.0455Q45.9716 50.8892 43.7216 52.3594Q41.4716 53.8295 40.6278 55.6449Q39.7841 57.4602 39.7841 59.3523L39.7841 64.9773Q39.7841 67.0994 39.3239 68.5185Q38.8636 69.9375 37.3807 70.6278Q35.8977 71.3182 32.8295 71.3182L32.8295 81.5455Q36.7926 81.5455 40.4872 81.277Q44.1818 81.0085 47.1094 79.7045Q50.0369 78.4006 51.7628 75.3707Q53.4886 72.3409 53.4886 66.8182L53.4886 62.8295Q53.4886 59.071 55.2401 57.3196Q56.9915 55.5682 61.4659 55.5682L61.4659 43.2955Q56.9915 43.2955 55.2401 41.544Q53.4886 39.7926 53.4886 36.0341L53.4886 32.0454Q53.4886 26.5227 51.7628 23.4929Q50.0369 20.4631 47.1094 19.1591Q44.1818 17.8551 40.4872 17.5866Z" />
    </g>
  </g>
</svg>