<?xml version="1.0" encoding="utf-8"?>
<svg width="256px" height="256px" viewBox="0 0 256 256" version="1.1" xmlns:xlink="http://www.w3.org/1999/xlink" xmlns="http://www.w3.org/2000/svg">
  <defs>
    <rect width="256" height="256" id="artboard_1" />
    <clipPath id="clip_1">
      <use xlink:href="#artboard_1" clip-rule="evenodd" />
    </clipPath>
  </defs>
  <g id="mimeicon_xls" clip-path="url(#clip_1)">
    <use xlink:href="#artboard_1" stroke="none" fill="#FFFFFF" fill-opacity="0" />
    <g id="Gruppieren" transform="translate(47 20)" artboard="681e8f84-ba26-4bae-9b70-75496a6eb124">
      <path d="M108 3.8147e-06L162 54L162 216L0 216L0 1.52588e-05L108 1.52588e-05L108 3.8147e-06Z" id="Rechteck-Subtrahieren" fill="#00E231" fill-rule="evenodd" stroke="none" />
      <path d="M108 0L162 54L108 54L108 0Z" id="Dreieck" fill="#000000" fill-opacity="0.8509804" fill-rule="evenodd" stroke="none" />
    </g>
    <g id="XLSX" fill="#FFFFFF" transform="translate(65 99)" artboard="fa344a7e-2dfb-4a4a-8879-7d0da7668cf4">
      <path d="M83.5057 21.5852Q83.3011 19.5227 81.7415 18.3807Q80.1818 17.2386 77.5398 17.2386Q74.8296 17.2386 73.3807 18.3466Q71.9318 19.4545 71.9318 21.142Q71.8977 23.017 73.5426 23.9801Q75.1875 24.9432 77.4545 25.4716L80.5909 26.2216Q83.625 26.9034 85.9858 28.1989Q88.3466 29.4943 89.7017 31.5312Q91.0568 33.5682 91.0568 36.483Q91.0398 41.2727 87.4688 44.1108Q83.8977 46.9489 77.5057 46.9489Q71.1477 46.9489 67.3636 44.0511Q63.5795 41.1534 63.4432 35.4943L70.5852 35.4943Q70.7727 38.1193 72.6563 39.4403Q74.5398 40.7614 77.4205 40.7614Q80.233 40.7614 81.9119 39.5682Q83.5909 38.375 83.608 36.4659Q83.5909 34.6932 82.0568 33.7386Q80.5227 32.7841 77.6761 32.1023L73.875 31.1477Q69.4602 30.0909 66.9034 27.7898Q64.3466 25.4886 64.3636 21.6364Q64.3466 18.4659 66.0597 16.0881Q67.7727 13.7102 70.7727 12.3892Q73.7727 11.0682 77.5909 11.0682Q81.4773 11.0682 84.3835 12.3977Q87.2898 13.7273 88.9091 16.0966Q90.5284 18.4659 90.5795 21.5852L83.5057 21.5852ZM16.9943 23.4432L9.95455 11.5455L1.58523 11.5455L12.3068 29L1.38068 46.4545L9.83523 46.4545L16.9943 34.5398L17.267 34.5398L24.4261 46.4545L32.9148 46.4545L22.0227 29L32.6761 11.5455L24.3409 11.5455L17.267 23.4432L16.9943 23.4432ZM44.7102 11.5455L37.3295 11.5455L37.3295 46.4545L59.6761 46.4545L59.6761 40.3693L44.7102 40.3693L44.7102 11.5455ZM109.96 23.4432L102.92 11.5455L94.5511 11.5455L105.273 29L94.3466 46.4545L102.801 46.4545L109.96 34.5398L110.233 34.5398L117.392 46.4545L125.881 46.4545L114.989 29L125.642 11.5455L117.307 11.5455L110.233 23.4432L109.96 23.4432Z" />
    </g>
    <g id="X" fill="#FFFFFF" fill-opacity="0.6901961" transform="translate(111 157)" artboard="11808f7a-3b17-4df3-9876-8372bae7fddc">
      <path d="M9.95455 11.5455L16.9943 23.4432L17.267 23.4432L24.3409 11.5455L32.6761 11.5455L22.0227 29L32.9148 46.4545L24.4261 46.4545L17.267 34.5398L16.9943 34.5398L9.83523 46.4545L1.38068 46.4545L12.3068 29L1.58523 11.5455L9.95455 11.5455Z" />
    </g>
  </g>
</svg>